<?xml version="1.0" encoding="UTF-8" standalone="no"?>
<svg
   xmlns:dc="http://purl.org/dc/elements/1.1/"
   xmlns:cc="http://creativecommons.org/ns#"
   xmlns:rdf="http://www.w3.org/1999/02/22-rdf-syntax-ns#"
   xmlns:svg="http://www.w3.org/2000/svg"
   xmlns="http://www.w3.org/2000/svg"
   xmlns:sodipodi="http://sodipodi.sourceforge.net/DTD/sodipodi-0.dtd"
   xmlns:inkscape="http://www.inkscape.org/namespaces/inkscape"
   width="87.57708mm"
   height="80.172585mm"
   viewBox="0 0 87.57708 80.172585"
   version="1.1"
   id="svg41680"
   inkscape:version="1.0.1 (3bc2e813f5, 2020-09-07)"
   sodipodi:docname="Swansea City AFC logo.svg">
  <defs
     id="defs41674" />
  <sodipodi:namedview
     id="base"
     pagecolor="#ffffff"
     bordercolor="#666666"
     borderopacity="1.0"
     inkscape:pageopacity="0.0"
     inkscape:pageshadow="2"
     inkscape:zoom="0.98994949"
     inkscape:cx="24.408239"
     inkscape:cy="81.861277"
     inkscape:document-units="mm"
     inkscape:current-layer="layer1"
     inkscape:document-rotation="0"
     showgrid="false"
     inkscape:pagecheckerboard="true"
     inkscape:window-width="1267"
     inkscape:window-height="728"
     inkscape:window-x="83"
     inkscape:window-y="0"
     inkscape:window-maximized="0" />
  <metadata
     id="metadata41677">
    <rdf:RDF>
      <cc:Work
         rdf:about="">
        <dc:format>image/svg+xml</dc:format>
        <dc:type
           rdf:resource="http://purl.org/dc/dcmitype/StillImage" />
        <dc:title></dc:title>
      </cc:Work>
    </rdf:RDF>
  </metadata>
  <g
     inkscape:label="Layer 1"
     inkscape:groupmode="layer"
     id="layer1"
     transform="translate(-99.37532,-126.50754)">
    <path
       style="fill:#000000;fill-opacity:1;fill-rule:nonzero;stroke:none;stroke-width:1.93825"
       d="m 131.93207,168.08158 c -4.67907,7.64702 -14.61263,8.16941 -24.65217,4.28536 0,0 4.00526,-0.11373 7.53345,-2.03667 3.10425,-1.69596 3.40709,-2.6424 6.47349,-6.37503 8.78268,-10.71341 16.7477,-15.53633 24.89441,-7.82113 0,0 -7.329,0.63596 -14.24918,11.94747"
       id="path20540" />
    <path
       style="fill:#000000;fill-opacity:1;fill-rule:nonzero;stroke:none;stroke-width:1.93825"
       d="m 142.58488,174.68375 c -4.67907,7.6546 -14.61257,8.16941 -24.65211,4.28536 0,0 3.99761,-0.11373 7.53339,-2.04425 3.09667,-1.68838 3.40709,-2.63482 6.46591,-6.37504 8.78267,-10.70583 16.74769,-15.52874 24.89441,-7.8136 0,0 -7.32901,0.62844 -14.2416,11.94753"
       id="path20542" />
    <path
       style="clip-rule:nonzero;fill:#000000;fill-opacity:1;fill-rule:nonzero;stroke:none;stroke-width:1.93825"
       d="m 177.25384,163.75079 c 0.42415,4.32321 -2.27144,8.21485 -11.06928,13.38604 0,0 13.51477,-11.40234 -3.05881,-19.42032 -10.3348,-5.00466 -18.14076,-9.32029 -20.9119,-15.74076 -1.91552,-4.42919 -0.0758,-11.89446 5.5498,-14.40813 0,0 6.20845,-3.0058 17.43667,1.10539 0,0 6.23115,2.18808 2.86196,6.428 0,0 0.87067,1.45372 1.7414,3.24056 0.66624,1.37796 0.005,1.90794 -0.97671,1.18869 -0.97671,-0.71931 -16.38425,-13.95392 -20.63933,-5.80721 0,0 -1.56729,2.96794 0.46207,6.60217 1.67327,2.21083 2.99063,2.8241 5.61029,4.31563 4.02037,2.11243 6.74601,3.55093 11.76584,6.3069 0,0 10.4938,5.10307 11.22822,12.80304"
       id="path20544" />
    <path
       style="fill:#000000;fill-opacity:1;fill-rule:nonzero;stroke:none;stroke-width:1.93825"
       d="m 154.14622,180.75595 c -4.67902,7.65454 -14.61258,8.1694 -24.65212,4.28535 0,0 3.99762,-0.11373 7.52587,-2.0443 3.10425,-1.68838 3.41462,-2.63477 6.47344,-6.37498 8.77514,-10.70583 16.74016,-15.52874 24.88682,-7.8136 0,0 -7.32142,0.63601 -14.23401,11.94753"
       id="path20548" />
    <path
       style="clip-rule:nonzero;fill:#000000;fill-opacity:1;fill-rule:nonzero;stroke:none;stroke-width:1.93825"
       d="m 106.13666,178.56781 c -0.044,-0.54503 -0.0907,-0.83282 -0.31812,-1.30225 -0.2423,-0.50712 -0.71172,-1.00699 -1.37801,-0.68898 -1.21896,0.58299 0.38624,3.14964 -1.69596,4.15662 -1.34769,0.65113 -2.38497,-0.12856 -3.005805,-1.38554 -0.212023,-0.43899 -0.295261,-0.93886 -0.363445,-1.40823 l 0.88584,-0.32581 c 0.0225,0.37086 0.0985,0.9994 0.33317,1.45367 0.24982,0.51481 0.8934,1.09786 1.62782,0.73442 1.41583,-0.6814 -0.29526,-3.18749 1.67324,-4.14146 1.12055,-0.54503 2.15028,0.0549 2.71053,1.1811 0.1967,0.41646 0.36372,0.94638 0.42416,1.44614 z m 0,0"
       id="path20550" />
    <path
       style="fill:#000000;fill-opacity:1;fill-rule:nonzero;stroke:none;stroke-width:1.93825"
       d="m 107.47682,179.36283 0.65865,0.87825 -3.80834,4.92131 0.022,0.0165 5.70875,-2.39253 0.86315,1.13572 -3.91438,4.79263 0.0165,0.0165 5.8299,-2.24869 0.64354,0.84798 -6.9277,2.46824 -0.77986,-1.03726 3.99762,-4.87593 -0.0165,-0.005 -5.83743,2.43038 -0.81012,-1.06753 z m 0,0"
       id="path20554"
       clip-path="none" />
    <path
       style="fill:#000000;fill-opacity:1;fill-rule:nonzero;stroke:none;stroke-width:1.93825"
       d="m 115.86577,190.43204 -3.33891,1.71113 2.12748,1.81706 z m 0.2423,-1.02968 0.80254,0.6814 -2.3395,7.21544 -0.83288,-0.71172 0.61327,-1.79437 -2.60449,-2.23353 -1.70355,0.87068 -0.80255,-0.68898 z m 0,0"
       id="path20556"
       clip-path="none" />
    <path
       style="fill:#000000;fill-opacity:1;fill-rule:nonzero;stroke:none;stroke-width:1.93825"
       d="m 120.26469,192.70342 1.18116,0.6814 -0.15164,6.39778 0.0165,0.0165 2.83926,-4.86077 0.87068,0.49943 -3.52819,6.03428 -1.11297,-0.63596 0.15164,-6.54915 -0.0165,-0.005 -2.9074,4.95917 -0.87067,-0.49998 z m 0,0"
       id="path20558"
       clip-path="none" />
    <path
       style="fill:#000000;fill-opacity:1;fill-rule:nonzero;stroke:none;stroke-width:1.93825"
       d="m 129.47894,198.35162 c -0.40108,-0.37086 -0.62838,-0.55272 -1.11297,-0.74199 -0.5302,-0.20439 -1.22654,-0.24999 -1.49153,0.43184 -0.48459,1.24171 2.44555,2.03667 1.60509,4.17937 -0.53733,1.39313 -1.83222,1.52938 -3.14963,1.0221 -0.46207,-0.17417 -0.86315,-0.48459 -1.23412,-0.78744 l 0.4313,-0.82523 c 0.26482,0.24998 0.75711,0.65112 1.23412,0.83281 0.53734,0.20439 1.40823,0.1967 1.70355,-0.56783 0.56783,-1.45367 -2.4077,-2.13512 -1.62026,-4.15662 0.45438,-1.15841 1.61267,-1.41587 2.80136,-0.96155 0.43184,0.16648 0.91611,0.43899 1.30224,0.77227 z m 0,0"
       id="path20560"
       clip-path="none" />
    <path
       style="clip-rule:nonzero;fill:#000000;fill-opacity:1;fill-rule:nonzero;stroke:none;stroke-width:1.93825"
       d="m 131.86394,198.01087 3.83103,0.91617 -0.21207,0.85556 -2.8468,-0.68145 -0.48459,1.9837 2.59697,0.62085 -0.20439,0.85557 -2.59691,-0.62844 -0.53734,2.24111 2.84685,0.6814 -0.20439,0.85556 -3.83109,-0.91611 z m 0,0"
       id="path20562" />
    <path
       style="clip-rule:nonzero;fill:#000000;fill-opacity:1;fill-rule:nonzero;stroke:none;stroke-width:1.93825"
       d="m 140.1696,200.40345 -1.65053,3.3465 2.78625,0.19669 z m -0.42415,-0.97671 1.05242,0.0758 2.44555,7.17758 -1.09028,-0.0835 -0.583,-1.80195 -3.43737,-0.25768 -0.8404,1.71108 -1.05242,-0.0835 z m 0,0"
       id="path20566" />
    <path
       style="clip-rule:nonzero;fill:#000000;fill-opacity:1;fill-rule:nonzero;stroke:none;stroke-width:1.93825"
       d="m 152.94242,199.66898 c -0.48459,-0.18186 -0.99187,-0.21977 -1.49916,-0.13626 -1.59751,0.27252 -2.46824,1.59757 -2.19567,3.14211 0.28021,1.61268 1.63542,2.49093 3.07398,2.24869 0.49998,-0.0906 1.14325,-0.32581 1.44609,-0.59816 l 0.23461,0.94644 c -0.49229,0.31043 -1.13567,0.44668 -1.54455,0.51481 -2.18809,0.37087 -3.89163,-0.77227 -4.27019,-2.96036 -0.36317,-2.11995 0.93881,-3.79323 3.05876,-4.14909 0.5302,-0.0907 1.07517,-0.10604 1.60515,0.0275 z m 0,0"
       id="path20570" />
    <path
       style="fill:#000000;fill-opacity:1;fill-rule:nonzero;stroke:none;stroke-width:1.93825"
       d="m 154.1538,198.09416 0.96155,-0.2802 1.96853,6.69304 -0.96155,0.2879 z m 0,0"
       id="path20574"
       clip-path="none" />
    <path
       style="fill:#000000;fill-opacity:1;fill-rule:nonzero;stroke:none;stroke-width:1.93825"
       d="m 158.62843,197.52633 -2.02909,0.82529 -0.33295,-0.8177 4.97434,-2.02914 0.34064,0.81013 -2.02914,0.83287 2.33956,5.63304 -0.93885,0.37855 z m 0,0"
       id="path20576"
       clip-path="none" />
    <path
       style="fill:#000000;fill-opacity:1;fill-rule:nonzero;stroke:none;stroke-width:1.93825"
       d="m 166.14671,197.39008 -4.47463,-2.05183 1.01457,-0.61327 3.4222,1.59751 0.11373,-3.72505 1.00699,-0.60574 -0.21977,4.87593 1.52944,2.49851 -0.86315,0.51481 z m 0,0"
       id="path20578"
       clip-path="none" />
    <path
       style="fill:#000000;fill-opacity:1;fill-rule:nonzero;stroke:none;stroke-width:1.93825"
       d="m 173.07447,188.09248 1.49911,3.41468 1.96853,-1.9837 z m -1.02215,-0.31043 0.742,-0.74952 7.10187,2.79377 -0.77227,0.77986 -1.7641,-0.72684 -2.42285,2.43038 0.76474,1.74141 -0.742,0.742 z m 0,0"
       id="path20580"
       clip-path="none" />
    <path
       style="fill:#000000;fill-opacity:1;fill-rule:nonzero;stroke:none;stroke-width:1.93825"
       d="m 175.54271,183.92075 2.17297,-3.01338 0.71926,0.51481 -1.5824,2.20325 1.66569,1.18116 1.5218,-2.10485 0.72689,0.50712 -1.52186,2.11237 2.6045,1.84745 -0.58294,0.81012 z m 0,0"
       id="path20582"
       clip-path="none" />
    <path
       style="clip-rule:nonzero;fill:#000000;fill-opacity:1;fill-rule:nonzero;stroke:none;stroke-width:1.93825"
       d="m 181.81176,175.81942 c -0.43899,0.27251 -0.77985,0.64359 -1.01457,1.09786 -0.74958,1.43098 -0.20439,2.90739 1.20385,3.63423 1.46883,0.75711 2.98305,0.20438 3.65692,-1.0827 0.22691,-0.43899 0.42415,-1.09786 0.40108,-1.50669 l 0.89336,0.39394 c -0.044,0.57541 -0.32581,1.16599 -0.51481,1.52938 -1.02215,1.96095 -2.96794,2.61208 -4.95164,1.58998 -1.9231,-0.98429 -2.4834,-3.02854 -1.50669,-4.91378 0.25713,-0.4846 0.57541,-0.91612 0.99941,-1.25682 z m 0,0"
       id="path20584" />
  </g>
</svg>
