<svg xmlns="http://www.w3.org/2000/svg" xmlns:svg="http://www.w3.org/2000/svg" width="273.8612787525831" height="365.1483716701108" viewBox="0 0 138.84274 185.20833" version="1.1" id="svg1" xml:space="preserve"><defs id="defs1"/><g id="layer1" transform="translate(-38.752371,-79.249097)"><g id="g1" transform="matrix(0.26458333,0,0,0.26458333,8.4562433,-41.389337)"><g id="g57" transform="translate(-23.114949,405.95629)">
	<g id="g4">
		<path style="fill:#ffffff" d="m 662.26,132.69 c -51.19,0 -84.5,-11.79 -113.79,-26.57 C 505.05,84.22 464.87,50 399.94,50 c -64.93,0 -104.98,34.22 -148.53,56.12 -29.29,14.78 -62.6,26.57 -113.79,26.57 v 218.13 c 0,11.15 1.3,21.38 3.76,30.72 v 42.77 30.46 12.18 c 0,82.82 26.96,150.73 70.89,199.33 47.04,51.97 115.86,83.72 187.54,83.72 71.68,0 140.36,-31.75 187.54,-83.73 43.94,-48.6 70.89,-116.52 70.89,-199.33 V 433.37 424.3 381.53 C 660.7,372.2 662,361.96 662,350.81 V 132.69 Z" id="path2"/>
		<path style="fill:#be1a19" d="m 581.9,439.08 c 28.51,0 45.75,-7.65 57.54,-21 15.03,-16.98 22.94,-39.4 22.94,-67.27 V 132.69 c -51.19,0 -84.5,-11.79 -113.79,-26.57 C 505.17,84.22 465,50 400.06,50 c -64.94,0 -104.98,34.22 -148.53,56.12 -29.29,14.78 -62.6,26.57 -113.79,26.57 v 218.13 c 0,27.99 7.91,50.29 22.94,67.27 11.79,13.35 29.03,21 57.54,21 H 581.9 Z" id="path3"/>
		<path style="fill:#211d15" d="m 639.32,460.72 c -11.79,13.35 -29.03,21 -57.54,21 H 218.1 c -28.51,0 -45.75,-7.65 -57.55,-21 -8.94,-10.24 -15.42,-22.29 -19.18,-36.42 v 42.64 c 0,82.82 26.96,150.73 70.89,199.33 47.05,51.98 115.87,83.73 187.55,83.73 71.68,0 140.36,-31.75 187.54,-83.73 43.94,-48.6 70.89,-116.52 70.89,-199.33 V 424.3 c -3.5,14 -9.85,26.18 -18.92,36.42 z" id="path4"/>
	</g>
	<g id="g18">
		<path style="fill:#ffffff" d="m 309.73,204.62 c -11.41,7.39 -21.77,16.2 -30.98,26.18 l 7.65,-0.26 z" id="path5"/>
		<path style="fill:#ffffff" d="m 291.45,281.73 66.23,12.57 64.54,-54.05 -11.66,-51.06 -57.29,-4.67 c -9.33,2.72 -18.27,6.35 -26.96,10.63 l -35.51,39.27 z" id="path6"/>
		<path style="fill:#ffffff" d="m 275.9,424.04 -27.48,-68.17 -13.74,-15.42 c 0,0.91 0,1.81 0,2.59 0,35.38 11.15,68.04 30.07,95 h 3.89 z" id="path7"/>
		<path style="fill:#ffffff" d="m 285.49,283.55 -0.65,-47.05 -11.41,0.39 c -21.9,26.05 -35.9,58.97 -38.36,95.13 l 15.42,17.24 z" id="path8"/>
		<path style="fill:#ffffff" d="m 559.87,301.05 c -3.76,-14.39 -9.46,-27.87 -16.72,-40.44 v 15.55 z" id="path9"/>
		<path style="fill:#ffffff" d="m 428.19,239.61 67.65,44.84 41.34,-9.85 v -18.92 l 1.81,-1.94 c -21.13,-32.92 -53.66,-57.67 -92.02,-69.08 l -30.46,4.28 z" id="path10"/>
		<path style="fill:#ffffff" d="m 431.82,180.9 c -10.24,-1.94 -20.87,-3.11 -31.75,-3.11 -9.59,0 -19.05,0.78 -28.25,2.46 l 41.08,3.37 z" id="path11"/>
		<path style="fill:#ffffff" d="m 563.24,316.73 -24.37,-36.42 -41.08,9.72 -20.61,79.32 35.77,51.58 38.88,-12.44 c 8.55,-19.96 13.35,-41.99 13.35,-65.19 0.13,-9.21 -0.65,-18.02 -1.94,-26.57 z" id="path12"/>
		<path style="fill:#ffffff" d="m 513.73,426.64 -7.65,11.41 h 29.16 c 5.05,-7.13 9.59,-14.65 13.35,-22.68 z" id="path13"/>
		<path style="fill:#ffffff" d="m 508.16,424.3 -35.77,-51.58 -79.19,3.24 -41.08,62.08 h 146.71 z" id="path14"/>
		<path style="fill:#ffffff" d="m 280.83,427.67 -5.44,10.37 h 41.08 z" id="path15"/>
		<path style="fill:#ffffff" d="m 362.22,298.32 31.36,71.8 78.02,-3.11 20.22,-78.15 -66.1,-43.81 z" id="path16"/>
		<path style="fill:#ffffff" d="m 388.14,372.85 -31.75,-72.84 -66.23,-12.57 -35.77,67.01 27.09,67.39 55.86,16.2 h 7.52 z" id="path17"/>
		<path style="fill:#211d15" d="m 477.18,369.22 20.61,-79.32 41.08,-9.72 24.37,36.42 c -0.91,-5.31 -1.94,-10.5 -3.37,-15.68 l -16.59,-24.88 v -15.55 c -1.3,-2.33 -2.72,-4.54 -4.15,-6.87 l -1.81,1.94 v 18.92 l -41.34,9.85 -67.65,-44.84 -11.53,-50.68 30.46,-4.28 c -4.92,-1.43 -10.11,-2.72 -15.29,-3.76 l -18.92,2.59 -41.08,-3.37 c -6.35,1.04 -12.57,2.59 -18.53,4.28 l 57.29,4.67 11.63,51.06 -64.54,54.05 -66.23,-12.57 -0.65,-47.31 35.51,-39.27 c -5.7,2.85 -11.28,6.09 -16.59,9.46 l -23.33,25.92 -7.65,0.26 c -1.81,1.94 -3.63,4.02 -5.31,5.96 l 11.41,-0.39 0.65,47.05 -34.99,65.71 -15.42,-17.24 c -0.13,2.85 -0.26,5.7 -0.39,8.55 l 13.74,15.42 27.48,68.17 -7.26,14 h 6.74 l 5.44,-10.37 35.77,10.37 h 20.87 l -55.86,-16.2 -27.09,-67.39 35.77,-67.01 66.23,12.57 31.75,72.84 -43.29,65.19 h 7.13 l 41.21,-62.08 79.19,-3.24 35.77,51.45 -9.33,13.87 h 7.13 l 7.65,-11.41 34.86,-11.28 c 1.17,-2.33 2.2,-4.8 3.24,-7.13 l -38.88,12.44 z m -5.57,-2.21 -78.02,3.24 -31.36,-71.93 63.51,-53.27 66.1,43.81 z" id="path18"/>
	</g>
	<g id="g20">
		<path style="fill:#cc1619" d="M 537.32,438.04 H 262.68 l -7.91,8.94 h 290.45 z" id="path19"/>
		<path style="fill:#c01a19" d="m 471.09,487.42 74.13,-40.44 H 254.78 l 74.26,40.44 v 37.46 h 142.05 z" id="path20"/>
	</g>
	<g id="g24">
		<path style="fill:#ffffff" d="m 363.13,686.36 h -6.74 v -30.85 c -2.46,2.85 -5.44,4.92 -8.68,6.22 v -7.39 c 1.81,-0.65 3.63,-2.07 5.7,-4.02 2.07,-1.94 3.5,-4.28 4.28,-6.87 h 5.44 z" id="path21"/>
		<path style="fill:#ffffff" d="m 373.49,676.51 6.61,-0.91 c 0.13,1.56 0.52,2.85 1.3,3.63 0.65,0.78 1.56,1.17 2.72,1.17 1.43,0 2.59,-0.78 3.63,-2.33 1.04,-1.56 1.56,-4.8 1.81,-9.72 -1.68,2.33 -3.89,3.63 -6.35,3.63 -2.72,0 -5.18,-1.3 -7.13,-3.89 -2.07,-2.59 -2.98,-5.96 -2.98,-10.11 0,-4.28 1.04,-7.78 3.24,-10.5 2.07,-2.59 4.8,-4.02 8.17,-4.02 3.63,0 6.48,1.68 8.81,5.05 2.33,3.37 3.5,8.81 3.5,16.59 0,7.78 -1.17,13.48 -3.63,16.85 -2.33,3.5 -5.44,5.18 -9.33,5.18 -2.72,0 -5.05,-0.91 -6.74,-2.72 -2.07,-1.68 -3.24,-4.4 -3.63,-7.9 z m 15.3,-17.88 c 0,-2.59 -0.52,-4.67 -1.56,-6.09 -1.04,-1.43 -2.2,-2.2 -3.5,-2.2 -1.3,0 -2.33,0.65 -3.11,1.81 -0.78,1.17 -1.3,3.11 -1.3,5.83 0,2.72 0.39,4.8 1.3,6.09 0.91,1.29 2.07,1.94 3.37,1.94 1.3,0 2.33,-0.65 3.24,-1.81 1.04,-1.43 1.56,-3.24 1.56,-5.57 z" id="path22"/>
		<path style="fill:#ffffff" d="m 400.84,675.35 6.74,-0.91 c 0.13,1.81 0.78,3.37 1.68,4.41 0.91,1.04 2.07,1.56 3.24,1.56 1.43,0 2.59,-0.65 3.63,-2.07 1.04,-1.43 1.43,-3.5 1.43,-6.22 0,-2.59 -0.52,-4.54 -1.43,-5.96 -0.91,-1.3 -2.2,-1.94 -3.76,-1.94 -1.94,0 -3.63,1.04 -5.18,3.11 l -5.44,-0.91 3.5,-22.29 h 17.89 v 7.65 H 410.3 l -1.04,7.26 c 1.56,-0.91 3.11,-1.43 4.67,-1.43 2.98,0 5.57,1.3 7.65,4.02 2.07,2.59 3.11,6.09 3.11,10.24 0,3.5 -0.78,6.61 -2.59,9.46 -2.33,3.76 -5.44,5.7 -9.59,5.7 -3.24,0 -5.96,-1.04 -8.04,-3.24 -1.95,-1.96 -3.24,-4.81 -3.63,-8.44 z" id="path23"/>
		<path style="fill:#ffffff" d="m 441.41,686.36 v -8.55 h -14.52 v -7.13 l 15.29,-27.09 h 5.7 v 27.09 h 4.41 v 7.26 h -4.41 v 8.55 h -6.48 v -0.13 z m 0,-15.81 V 655.9 l -8.17,14.65 z" id="path24"/>
	</g>
	<g id="g56">
		<path style="fill:#ffffff" d="M 537.84,524.87 H 262.29 c -23.85,0 -43.16,21.9 -43.16,48.73 0,26.96 19.31,48.73 43.16,48.73 h 275.54 c 23.85,0 43.16,-21.9 43.16,-48.73 0,-26.83 -19.44,-48.73 -43.15,-48.73 z" id="path25"/>
		<g id="g55">
			<g id="g35">
				<path style="fill:#c01a19" d="m 270.2,611.71 c 2.07,-5.83 4.02,-11.53 6.09,-17.37 1.43,-4.15 2.98,-8.42 4.28,-12.57 0.39,-1.17 0.91,-1.43 2.07,-1.43 1.81,0.13 3.63,0 5.7,0 3.63,10.5 7.39,21 11.02,31.75 -2.07,0 -4.02,0 -5.83,0 -0.39,0 -0.91,-0.52 -1.17,-0.91 -0.26,-0.26 -0.26,-0.65 -0.26,-0.91 -1.56,-4.67 -1.56,-4.67 -6.61,-4.67 -1.81,0 -3.63,-0.13 -5.44,0 -0.52,0 -1.3,0.52 -1.56,1.04 -0.91,1.68 -1.04,4.28 -2.33,5.05 -1.43,0.91 -3.76,0.26 -5.7,0.26 -0.26,0.02 -0.26,-0.11 -0.26,-0.24 z m 18.53,-11.14 c -1.43,-4.41 -2.85,-8.68 -4.28,-12.96 -1.43,4.41 -2.85,8.68 -4.28,12.96 2.86,0 5.58,0 8.56,0 z" id="path26"/>
				<path style="fill:#c01a19" d="m 442.58,612.49 c -1.04,-0.26 -1.94,-0.52 -3.24,-0.91 0.26,-1.81 0.39,-3.76 0.65,-5.7 1.81,0.39 3.37,0.91 5.18,1.04 1.43,0.13 2.85,0 4.28,-0.26 1.56,-0.39 2.46,-1.56 2.59,-3.11 0.13,-1.56 -0.52,-2.85 -1.81,-3.5 -1.81,-0.91 -3.63,-1.68 -5.44,-2.46 -4.67,-2.2 -6.61,-5.83 -5.57,-10.63 0.52,-2.2 1.68,-3.89 3.63,-5.18 4.28,-2.59 8.81,-2.33 13.61,-1.43 -0.13,1.81 -0.39,3.5 -0.52,5.05 -2.33,-0.26 -4.28,-0.52 -6.35,-0.52 -2.33,0 -3.76,1.17 -4.02,2.98 -0.26,1.68 0.52,3.11 2.72,4.02 1.56,0.78 3.11,1.3 4.67,2.07 3.5,1.68 6.09,4.28 5.96,8.42 -0.13,4.54 -2.72,7.39 -6.74,9.07 -0.91,0.39 -1.81,0.65 -2.59,0.91 -2.48,0.14 -4.68,0.14 -7.01,0.14 z" id="path27"/>
				<path style="fill:#c01a19" d="m 508.03,612.49 c -0.39,-0.13 -0.78,-0.26 -1.17,-0.39 -5.57,-0.91 -9.2,-3.89 -10.63,-9.46 -1.17,-4.54 -1.04,-9.07 0.65,-13.48 2.46,-6.74 9.2,-10.24 17.11,-9.07 1.3,0.13 2.59,0.52 4.02,0.78 -0.26,1.94 -0.52,3.76 -0.91,5.57 -4.92,-1.04 -9.98,-2.46 -13.09,2.85 -2.59,4.54 -2.72,9.59 0.13,14 3.24,4.92 8.29,3.63 13.09,2.2 0.39,1.43 0.78,2.85 1.04,4.28 0,0.39 0,0.78 0,1.17 -2.2,0.52 -4.28,1.04 -6.48,1.56 -1.17,-0.01 -2.47,-0.01 -3.76,-0.01 z" id="path28"/>
				<path style="fill:#c01a19" d="m 464.99,612.49 c -1.04,-1.04 -2.33,-1.81 -2.33,-3.63 0,-1.94 1.04,-3.5 2.59,-3.89 1.81,-0.52 3.63,0.26 4.54,1.81 0.91,1.56 0.52,3.37 -0.91,4.67 -0.39,0.39 -0.91,0.65 -1.3,1.04 -0.9,0 -1.81,0 -2.59,0 z" id="path29"/>
				<path style="fill:#c01a19" d="m 400.58,580.35 c 4.8,0 9.72,-0.39 14.39,0.13 6.74,0.65 10.89,5.57 11.28,12.44 0.13,2.07 0.13,4.15 -0.13,6.09 -1.3,7.78 -7,12.7 -14.9,13.09 -2.98,0.13 -6.09,0 -9.07,0 -1.04,0 -1.81,0 -1.81,-1.56 0,-9.85 0,-19.57 0,-29.42 0.11,-0.13 0.24,-0.39 0.24,-0.77 z m 5.97,15.68 c 0,3.11 0,6.09 0,9.2 0,0.52 0.65,1.43 1.04,1.43 6.87,1.04 11.41,-2.33 12.05,-9.2 0.65,-6.22 -1.43,-11.15 -7.52,-12.05 -1.3,-0.26 -2.72,0 -4.15,-0.13 -1.17,-0.13 -1.56,0.39 -1.56,1.56 0.14,3.1 0.14,6.08 0.14,9.19 z" id="path30"/>
				<path style="fill:#c01a19" d="m 322.43,580.34 c 4.02,0 8.17,-0.26 12.05,0 5.05,0.39 7.65,3.11 8.17,7.91 0.39,4.15 -2.07,7.78 -6.48,9.33 -0.26,0.13 -0.52,0.26 -0.91,0.39 3.11,4.67 6.22,9.2 9.59,14 -2.59,0 -4.93,0.13 -7.13,-0.13 -0.52,0 -1.04,-0.91 -1.43,-1.43 -2.46,-3.76 -4.93,-7.65 -7.78,-11.41 0,4.28 0,8.42 0,12.83 -2.2,0 -4.02,0 -6.09,0 0.01,-10.36 0.01,-20.86 0.01,-31.49 z m 6.09,4.93 c 0,3.11 0,5.96 0,9.07 2.72,0.13 5.31,0.13 7,-2.33 1.04,-1.56 1.17,-3.5 0,-5.05 -1.81,-2.34 -4.41,-1.82 -7,-1.69 z" id="path31"/>
				<path style="fill:#c01a19" d="m 374.4,611.97 c -2.07,0 -3.89,0 -5.83,0 -0.39,0 -0.78,-0.52 -1.17,-0.78 -0.13,-0.13 -0.13,-0.39 -0.13,-0.52 -0.65,-1.68 -0.78,-4.02 -1.94,-4.8 -1.3,-0.91 -3.5,-0.26 -5.31,-0.39 -0.65,0 -1.3,0 -1.94,0 -4.41,0 -4.54,0 -5.7,4.15 -0.52,1.94 -1.43,2.72 -3.37,2.46 -1.17,-0.13 -2.2,0 -3.63,0 1.43,-4.15 2.85,-8.17 4.15,-12.18 2.07,-5.96 4.15,-12.05 6.09,-18.02 0.39,-1.04 0.78,-1.68 2.07,-1.56 1.81,0.13 4.15,-0.52 5.57,0.39 1.17,0.78 1.43,3.24 2.07,4.93 2.85,8.04 5.57,16.07 8.42,24.11 0.13,0.66 0.39,1.3 0.65,2.21 z m -10.5,-11.41 c -1.43,-4.41 -2.85,-8.68 -4.28,-12.96 -1.43,4.41 -2.85,8.68 -4.28,12.96 2.86,0 5.58,0 8.56,0 z" id="path32"/>
				<path style="fill:#c01a19" d="m 377.64,611.84 c 0,-10.5 0,-20.87 0,-31.49 5.57,0 11.15,0 16.85,0 0,1.56 0,3.24 0,5.05 -3.5,0 -7.13,0 -10.76,0 0,2.59 0,4.92 0,7.52 3.37,0 6.74,0 10.24,0 0,1.81 0,3.37 0,5.18 -3.37,0 -6.74,0 -10.24,0 0,2.85 0,5.44 0,8.29 3.5,0 7,0 10.63,0 0,1.81 0,3.5 0,5.31 -5.44,0.14 -11.01,0.14 -16.72,0.14 z" id="path33"/>
				<path style="fill:#c01a19" d="m 475.62,611.84 c 0,-10.5 0,-21 0,-31.49 5.57,0 11.02,0 16.59,0 0,1.68 0,3.37 0,5.18 -3.5,0 -6.87,0 -10.5,0 0,2.59 0,5.05 0,7.78 3.24,0 6.48,0 9.85,0 0,1.81 0,3.37 0,5.18 -3.24,0 -6.48,0 -9.85,0 0,4.54 0,8.81 0,13.22 -2.07,0.13 -4.01,0.13 -6.09,0.13 z" id="path34"/>
				<path style="fill:#c01a19" d="m 302.47,580.35 c 1.94,0 3.89,0 5.96,0 0,8.68 0,17.24 0,26.05 3.5,0 6.74,0 10.11,0 0,1.94 0,3.63 0,5.44 -5.31,0 -10.63,0 -15.94,0 -0.13,-10.37 -0.13,-20.74 -0.13,-31.49 z" id="path35"/>
			</g>
			<g id="g54">
				<path style="fill:#c01a19" d="m 325.41,530.19 c 0,1.04 0,2.2 0,3.24 -1.04,0 -1.81,-0.13 -2.59,0 -0.52,0.13 -0.91,0.65 -1.43,1.04 0.39,0.52 0.78,1.3 1.3,1.43 1.17,0.26 2.46,0.26 3.76,0.39 0,0.91 0,1.81 0,2.85 -3.37,0 -6.74,0 -10.37,0 0,-0.91 0,-1.81 0,-2.85 0.52,-0.13 1.04,-0.13 1.56,-0.26 -0.91,-3.5 1.17,-4.92 3.89,-5.96 1.29,0.12 2.59,0.12 3.88,0.12 z" id="path36"/>
				<path style="fill:#c01a19" d="m 325.41,530.19 h -0.52 c 0,1.04 0,2.2 0,3.24 h 0.52 v -0.52 c -0.52,0 -1.04,0 -1.68,0 -0.39,0 -0.78,0 -1.04,0.13 -0.39,0.13 -0.65,0.26 -0.91,0.52 -0.26,0.26 -0.52,0.39 -0.65,0.52 l -0.39,0.39 0.39,0.39 c 0.13,0.13 0.39,0.52 0.52,0.78 0.26,0.26 0.52,0.65 0.91,0.78 1.3,0.39 2.59,0.26 3.89,0.39 v -0.52 h -0.52 c 0,0.91 0,1.81 0,2.85 h 0.52 v -0.52 c -3.37,0 -6.74,0 -10.37,0 v 0.52 h 0.52 c 0,-0.91 0,-1.81 0,-2.85 h -0.52 l 0.13,0.52 c 0.52,-0.13 1.04,-0.13 1.56,-0.26 l 0.52,-0.13 -0.13,-0.52 c -0.13,-0.52 -0.13,-0.91 -0.13,-1.3 0,-1.04 0.39,-1.81 1.04,-2.46 0.65,-0.65 1.68,-1.17 2.72,-1.56 l -0.13,-0.52 v 0.52 c 1.3,0 2.46,0 3.76,0 v -0.39 -0.52 c -1.3,0 -2.46,0 -3.76,0 h -0.13 -0.13 c -1.17,0.39 -2.33,1.04 -3.11,1.81 -0.78,0.78 -1.43,1.81 -1.43,3.24 0,0.52 0.13,1.04 0.26,1.56 l 0.52,-0.13 -0.13,-0.52 c -0.52,0.13 -1.04,0.13 -1.56,0.26 l -0.39,0.13 v 0.39 c 0,1.04 0,1.94 0,2.85 v 0.52 h 0.52 c 3.5,0 6.87,0 10.37,0 h 0.52 v -0.52 c 0,-1.04 0,-1.94 0,-2.85 v -0.52 h -0.52 c -1.3,-0.13 -2.59,-0.13 -3.63,-0.39 0,0 -0.13,-0.13 -0.39,-0.39 -0.13,-0.26 -0.39,-0.52 -0.65,-0.91 l -0.39,0.39 0.26,0.39 c 0.26,-0.26 0.52,-0.39 0.65,-0.65 0.26,-0.13 0.39,-0.26 0.52,-0.26 0.26,0 0.52,-0.13 0.91,-0.13 0.52,0 1.04,0 1.68,0 h 0.52 v -0.52 c 0,-1.17 0,-2.2 0,-3.24 v -0.52 h -0.52 z" id="path37"/>
				<path style="fill:#c01a19" d="m 386.45,561.68 c -12.18,0 -24.24,0 -36.16,0 -1.68,8.94 -5.18,11.53 -13.61,9.85 0.13,-1.3 0.26,-2.72 0.39,-4.15 0.78,0.13 1.56,0.26 2.2,0.26 3.89,0.26 5.31,-1.17 5.31,-5.05 0,-5.57 0,-11.02 0,-16.59 0,-1.04 0,-2.2 0,-3.37 1.81,0 3.5,0 5.31,0 0,4.8 0,9.59 0,14.65 10.37,0 20.61,0 31.11,0 0,-8.04 0,-16.07 0,-24.24 1.94,0 3.63,0 5.44,0 0.01,9.59 0.01,19.05 0.01,28.64 z" id="path38"/>
				<path style="fill:#c01a19" d="m 386.45,561.68 v -0.52 c -12.18,0 -24.24,0 -36.16,0 h -0.39 l -0.13,0.39 c -0.65,3.63 -1.68,6.09 -2.98,7.65 -1.43,1.56 -3.24,2.2 -5.83,2.2 -1.17,0 -2.59,-0.13 -4.15,-0.52 l -0.13,0.52 h 0.52 c 0.13,-1.3 0.26,-2.72 0.39,-4.15 h -0.52 v 0.52 c 0.78,0.13 1.56,0.26 2.33,0.26 0.26,0 0.52,0 0.78,0 0.91,0 1.68,-0.13 2.33,-0.26 1.04,-0.26 1.81,-0.91 2.2,-1.81 0.52,-0.91 0.65,-2.07 0.65,-3.5 0,-2.2 0,-4.54 0,-6.74 0,-3.24 0,-6.61 0,-9.85 0,-0.39 0,-0.78 0,-1.04 0,-0.78 0,-1.43 0,-2.33 h -0.52 v 0.65 c 1.81,0 3.5,0 5.31,0 v -0.52 h -0.52 c 0,4.8 0,9.59 0,14.65 v 0.52 h 0.52 c 10.37,0 20.61,0 31.11,0 h 0.52 v -0.52 c 0,-8.04 0,-16.07 0,-24.24 h -0.52 v 0.52 c 1.94,0 3.63,0 5.44,0 v -0.52 h -0.52 c 0,9.59 0,19.05 0,28.77 h 0.26 v -0.52 0.39 h 0.52 c 0,-9.72 0,-19.18 0,-28.77 v -0.52 h -0.52 c -1.81,0 -3.5,0 -5.44,0 h -0.52 v 0.52 c 0,8.17 0,16.2 0,24.24 H 381 v -0.52 c -10.5,0 -20.74,0 -31.11,0 v 0.52 h 0.52 c 0,-4.93 0,-9.72 0,-14.65 v -0.52 h -0.52 c -1.81,0 -3.5,0 -5.31,0 h -0.52 v 0.52 c 0,0.78 0,1.56 0,2.33 0,0.39 0,0.78 0,1.04 0,3.24 0,6.61 0,9.85 0,2.2 0,4.41 0,6.74 0,1.81 -0.39,2.98 -0.91,3.63 -0.26,0.39 -0.65,0.52 -1.17,0.78 -0.52,0.13 -1.17,0.26 -1.94,0.26 -0.26,0 -0.39,0 -0.65,0 -0.65,0 -1.43,-0.13 -2.2,-0.26 h -0.52 v 0.52 c -0.13,1.56 -0.26,2.85 -0.39,4.15 v 0.52 l 0.52,0.13 c 1.56,0.26 2.98,0.52 4.28,0.52 2.85,0 5.05,-0.78 6.61,-2.59 1.56,-1.81 2.59,-4.41 3.24,-8.17 l -0.52,-0.13 v 0.52 c 12.05,0 24.11,0 36.16,0 h 0.52 v -0.52 h -0.65 v -0.14 z" id="path39"/>
				<path style="fill:#c01a19" d="m 319.32,557.28 c 0,-5.05 0,-9.85 0,-14.78 1.81,0 3.37,0 5.18,0 0,6.35 0,12.7 0,19.05 -17.63,0 -35.12,0 -52.75,0 0,-1.43 0,-2.72 0,-4.15 4.02,0 7.91,0 11.92,0 -0.26,-6.35 -3.76,-9.72 -9.46,-11.41 0.39,-1.56 0.78,-2.98 1.3,-4.54 8.29,2.07 13.09,7 13.48,15.68 10.11,0.15 20.09,0.15 30.33,0.15 z" id="path40"/>
				<path style="fill:#c01a19" d="m 319.32,557.28 h 0.52 c 0,-5.05 0,-9.85 0,-14.78 h -0.52 v 0.65 c 1.81,0 3.37,0 5.18,0 v -0.52 h -0.52 c 0,6.35 0,12.7 0,19.05 h 0.52 v -0.52 c -17.63,0 -35.12,0 -52.75,0 v 0.52 h 0.52 c 0,-1.43 0,-2.72 0,-4.15 h -0.52 v 0.52 c 4.02,0 7.91,0 11.92,0 h 0.52 v -0.52 c -0.13,-3.24 -1.17,-5.83 -2.85,-7.78 -1.68,-1.95 -4.15,-3.24 -7,-4.15 l -0.13,0.52 0.52,0.13 c 0.39,-1.56 0.78,-2.98 1.3,-4.54 l -0.52,-0.13 -0.13,0.52 c 4.15,1.04 7.26,2.72 9.46,5.18 2.2,2.46 3.5,5.83 3.63,10.11 v 0.52 h 0.52 c 10.11,0 20.22,0 30.46,0 h 0.52 v -0.52 h -0.65 v -0.52 c -10.24,0 -20.22,0 -30.46,0 v 0.52 h 0.52 c -0.26,-4.41 -1.56,-8.04 -3.89,-10.63 -2.33,-2.72 -5.7,-4.54 -9.98,-5.57 l -0.52,-0.13 -0.13,0.52 c -0.39,1.56 -0.91,2.98 -1.3,4.54 l -0.13,0.52 0.52,0.13 c 2.85,0.78 4.93,2.07 6.48,3.76 1.55,1.69 2.46,4.02 2.59,7.13 h 0.52 v -0.52 c -4.02,0 -7.91,0 -11.92,0 h -0.52 v 0.52 c 0,1.56 0,2.72 0,4.15 v 0.52 h 0.52 c 17.63,0 35.12,0 52.75,0 h 0.52 v -0.52 c 0,-6.35 0,-12.7 0,-19.05 v -0.52 h -0.52 c -1.81,0 -3.37,0 -5.18,0 h -0.52 v 0.52 c 0,4.93 0,9.72 0,14.78 h 0.65 v -0.52 z" id="path41"/>
				<path style="fill:#c01a19" d="m 474.72,561.55 c 0,-9.59 0,-19.05 0,-28.51 1.81,0 3.37,0 5.31,0 0,8.04 0,16.07 0,24.11 10.63,0 21.13,0 31.75,0 0,-4.8 0,-9.59 0,-14.65 1.81,0 3.5,0 5.31,0 0,6.22 0,12.57 0,18.92 -14.12,0.13 -28.25,0.13 -42.37,0.13 z" id="path42"/>
				<path style="fill:#c01a19" d="m 474.72,561.55 h 0.52 c 0,-9.59 0,-19.05 0,-28.51 h -0.52 v 0.52 c 1.81,0 3.37,0 5.31,0 v -0.52 h -0.52 c 0,8.04 0,16.07 0,24.11 v 0.52 h 0.52 c 10.63,0 21.13,0 31.75,0 h 0.52 v -0.52 c 0,-4.8 0,-9.59 0,-14.65 h -0.52 v 0.65 c 1.81,0 3.5,0 5.31,0 v -0.52 h -0.52 c 0,6.22 0,12.57 0,18.92 h 0.52 v -0.52 c -14,0 -28.12,0 -42.38,0 v 0.52 0.52 c 14.26,0 28.25,0 42.38,0 h 0.52 v -0.52 c 0,-6.48 0,-12.7 0,-18.92 v -0.52 h -0.52 c -1.81,0 -3.5,0 -5.31,0 h -0.52 v 0.52 c 0,4.92 0,9.72 0,14.65 h 0.52 v -0.52 c -10.63,0 -21.13,0 -31.75,0 v 0.52 h 0.52 c 0,-8.17 0,-16.2 0,-24.11 v -0.52 h -0.52 c -1.81,0 -3.5,0 -5.31,0 h -0.52 v 0.52 c 0,9.59 0,18.92 0,28.51 v 0.52 h 0.52 z" id="path43"/>
				<path style="fill:#c01a19" d="m 447.5,556.76 c -1.81,0 -3.37,0 -5.18,0 0,-1.81 0,-3.63 0,-5.44 -0.13,-4.54 -2.72,-6.22 -7.13,-4.54 0,4.8 0,9.72 0,14.9 -5.7,-0.13 -11.41,0.78 -16.85,-1.29 -3.89,-1.56 -5.96,-4.54 -6.22,-8.81 -0.13,-2.2 0.26,-4.41 0.39,-6.61 0.13,-1.3 0.91,-1.95 2.2,-2.08 1.3,-0.13 2.59,-0.39 3.63,-0.52 -0.26,2.59 -0.78,4.92 -0.78,7.26 0,4.28 1.94,6.61 6.09,7.39 2.07,0.39 4.15,0.39 6.35,0.52 0,-4.28 0.13,-8.29 0,-12.31 -0.13,-1.94 0.39,-2.98 2.59,-2.85 2.33,0 4.67,-0.39 7,-0.26 5.05,0.13 7.52,2.46 8.04,7.52 0,2.19 -0.13,4.66 -0.13,7.12 z" id="path44"/>
				<path style="fill:#c01a19" d="m 447.5,556.76 v -0.52 c -1.81,0 -3.37,0 -5.18,0 v 0.52 h 0.52 c 0,-1.17 0,-2.2 0,-3.37 0,-0.65 0,-1.42 0,-2.07 0,-1.81 -0.52,-3.11 -1.3,-4.15 -0.78,-1.04 -1.94,-1.55 -3.37,-1.55 -0.91,0 -1.94,0.26 -3.11,0.65 l -0.39,0.13 v 0.39 c 0,4.8 0,9.72 0,14.9 h 0.52 v -0.52 c -0.39,0 -0.91,0 -1.3,0 -2.07,0 -4.15,0.13 -6.09,0.13 -3.24,0 -6.22,-0.26 -9.2,-1.43 -1.81,-0.78 -3.24,-1.81 -4.28,-3.24 -0.91,-1.43 -1.56,-3.11 -1.68,-5.05 0,-0.39 0,-0.65 0,-1.04 0,-1.81 0.26,-3.63 0.39,-5.57 0,-0.52 0.26,-0.91 0.52,-1.17 0.26,-0.26 0.65,-0.39 1.3,-0.52 1.3,-0.13 2.59,-0.39 3.63,-0.52 l -0.13,-0.52 h -0.52 c -0.26,2.46 -0.78,4.93 -0.91,7.39 v 0.13 c 0,2.2 0.52,3.89 1.68,5.19 1.17,1.3 2.72,2.07 4.93,2.46 2.07,0.39 4.15,0.39 6.48,0.52 h 0.52 v -0.52 c 0,-2.46 0,-4.93 0,-7.26 0,-1.68 0,-3.37 -0.13,-5.05 0,-0.13 0,-0.26 0,-0.39 0,-0.78 0.13,-1.3 0.39,-1.56 0.13,-0.13 0.26,-0.26 0.52,-0.26 0.26,-0.13 0.65,-0.13 1.04,-0.13 h 0.13 c 0.13,0 0.26,0 0.26,0 2.07,0 4.15,-0.26 6.22,-0.26 0.13,0 0.26,0 0.52,0 2.46,0 4.15,0.65 5.44,1.81 1.3,1.17 1.94,2.85 2.2,5.19 0.13,0.91 0.13,1.68 0.13,2.59 0,1.43 -0.13,2.98 -0.13,4.67 h 0.38 0.52 c 0,-1.56 0.13,-3.11 0.13,-4.67 0,-0.91 0,-1.82 -0.13,-2.72 -0.26,-2.59 -1.04,-4.53 -2.46,-5.96 -1.43,-1.3 -3.5,-1.95 -6.09,-2.08 -0.13,0 -0.39,0 -0.52,0 -2.07,0 -4.15,0.26 -6.22,0.26 -0.13,0 -0.13,0 -0.26,0 h -0.13 c -0.52,0 -0.91,0 -1.3,0.13 -0.52,0.13 -1.04,0.52 -1.3,1.04 -0.26,0.52 -0.39,1.04 -0.39,1.81 0,0.13 0,0.26 0,0.39 0.13,1.68 0.13,3.24 0.13,4.93 0,2.33 0,4.79 0,7.26 H 430 v -0.52 c -2.33,-0.13 -4.41,-0.13 -6.35,-0.52 -1.94,-0.39 -3.37,-1.04 -4.28,-2.07 -0.91,-1.04 -1.43,-2.46 -1.43,-4.53 v -0.13 c 0,-2.33 0.52,-4.67 0.78,-7.26 l 0.13,-0.65 -0.65,0.13 c -1.17,0.13 -2.33,0.39 -3.63,0.52 -0.78,0.13 -1.43,0.26 -1.81,0.78 -0.52,0.39 -0.78,1.04 -0.78,1.81 -0.13,1.81 -0.39,3.76 -0.39,5.7 0,0.39 0,0.65 0,1.04 0.13,2.2 0.78,4.02 1.81,5.7 1.04,1.56 2.72,2.72 4.67,3.63 3.24,1.3 6.35,1.43 9.59,1.43 2.07,0 4.02,-0.13 6.09,-0.13 0.39,0 0.91,0 1.3,0 h 0.52 v -0.52 c 0,-5.18 0,-9.98 0,-14.9 h -0.52 l 0.13,0.52 c 1.04,-0.39 1.94,-0.52 2.85,-0.52 1.17,0 1.94,0.39 2.59,1.17 0.65,0.78 1.04,1.95 1.04,3.5 0,0.65 0,1.29 0,2.07 0,1.17 0,2.2 0,3.37 v 0.52 h 0.52 c 1.81,0 3.37,0 5.18,0 h 0.52 v -0.52 h -0.38 z" id="path45"/>
				<path style="fill:#c01a19" d="m 452.17,561.68 c 0,-1.56 0,-2.85 0,-4.41 3.89,0 7.78,0 11.53,0 0.52,-4.28 -2.07,-9.33 -9.2,-11.28 0.39,-1.43 0.78,-2.85 1.17,-4.28 8.55,0.26 15.29,10.24 13.35,19.96 -2.72,0 -5.57,0 -8.42,0 -2.73,0.01 -5.45,0.01 -8.43,0.01 z" id="path46"/>
				<path style="fill:#c01a19" d="m 452.17,561.68 h 0.52 c 0,-1.56 0,-2.85 0,-4.41 h -0.52 v 0.52 c 3.89,0 7.78,0 11.53,0 h 0.52 v -0.52 c 0,-0.39 0,-0.65 0,-1.04 0,-2.2 -0.78,-4.41 -2.33,-6.35 -1.55,-1.94 -4.02,-3.5 -7.26,-4.54 l -0.13,0.52 0.52,0.13 c 0.39,-1.43 0.78,-2.85 1.17,-4.28 l -0.52,-0.13 v 0.52 c 3.63,0.13 6.87,2.08 9.33,4.93 2.46,2.98 3.89,7 3.89,11.02 0,1.04 -0.13,2.2 -0.26,3.24 l 0.52,0.13 v -0.52 c -2.72,0 -5.57,0 -8.42,0 -2.72,0 -5.57,0 -8.55,0 v 0.78 0.52 c 2.98,0 5.7,0 8.55,0 2.85,0 5.57,0 8.42,0 h 0.39 l 0.13,-0.39 c 0.26,-1.17 0.39,-2.33 0.39,-3.5 0,-4.41 -1.56,-8.55 -4.15,-11.66 -2.59,-3.11 -6.09,-5.32 -10.11,-5.32 h -0.39 l -0.13,0.39 c -0.39,1.43 -0.78,2.85 -1.17,4.28 l -0.13,0.52 0.52,0.13 c 3.11,0.91 5.31,2.46 6.74,4.15 1.43,1.81 2.07,3.76 2.07,5.7 0,0.26 0,0.65 0,0.91 h 0.52 v -0.52 c -3.76,0 -7.65,0 -11.53,0 h -0.52 v 0.52 c 0,1.56 0,2.85 0,4.41 v 0.52 h 0.52 v -0.65 h -0.13 z" id="path47"/>
				<path style="fill:#c01a19" d="m 393.33,561.55 c 0,-9.59 0,-19.05 0,-28.51 1.81,0 3.5,0 5.18,0 0,9.59 0,18.92 0,28.51 -1.56,0 -3.24,0 -5.18,0 z" id="path48"/>
				<path style="fill:#c01a19" d="m 393.32,561.55 h 0.52 c 0,-9.59 0,-19.05 0,-28.51 h -0.52 v 0.52 c 1.81,0 3.5,0 5.18,0 v -0.52 h -0.52 c 0,9.59 0,18.92 0,28.51 h 0.52 v -0.52 c -1.68,0 -3.37,0 -5.18,0 v 0.52 0.52 c 1.94,0 3.5,0 5.18,0 h 0.65 v -0.52 c 0,-9.59 0,-19.05 0,-28.51 v -0.52 h -0.52 c -1.81,0 -3.5,0 -5.19,0 h -0.52 v 0.52 c 0,9.59 0,19.05 0,28.51 v 0.52 h 0.52 v -0.52 z" id="path49"/>
				<path style="fill:#c01a19" d="m 331.11,532.91 c 1.81,0 3.37,0 5.05,0 0,9.59 0,19.05 0,28.64 -1.68,0 -3.37,0 -5.05,0 0,-9.46 0,-18.92 0,-28.64 z" id="path50"/>
				<path style="fill:#c01a19" d="m 331.11,532.91 v 0.52 c 1.81,0 3.37,0 5.05,0 v -0.52 h -0.52 c 0,9.59 0,19.05 0,28.64 h 0.52 v -0.52 c -1.68,0 -3.37,0 -5.05,0 v 0.52 h 0.52 c 0,-9.59 0,-19.05 0,-28.64 h -0.52 -0.52 c 0,9.59 0,19.05 0,28.64 v 0.52 h 0.52 c 1.68,0 3.37,0 5.05,0 h 0.52 v -0.52 c 0,-9.59 0,-19.05 0,-28.64 v -0.52 h -0.52 c -1.68,0 -3.24,0 -5.05,0 h -0.52 v 0.52 z" id="path51"/>
				<path style="fill:#c01a19" d="m 517.23,536.41 c 0,1.68 -1.17,2.72 -2.72,2.85 -1.68,0 -2.85,-1.3 -2.85,-2.85 0,-1.55 1.17,-2.85 2.72,-2.85 1.68,-0.13 2.85,1.16 2.85,2.85 z" id="path52"/>
				<path style="fill:#c01a19" d="m 422.36,570.63 c -1.43,0 -2.72,-1.43 -2.72,-2.85 0,-1.56 1.43,-2.85 2.98,-2.72 1.56,0.13 2.72,1.43 2.59,2.98 -0.13,1.29 -1.43,2.59 -2.85,2.59 z" id="path53"/>
				<path style="fill:#c01a19" d="m 429.1,570.63 c -1.43,0 -2.72,-1.17 -2.72,-2.85 0,-1.68 1.04,-2.85 2.59,-2.85 1.55,0 2.72,1.04 2.72,2.72 0,1.68 -1.17,2.98 -2.59,2.98 z" id="path54"/>
			</g>
		</g>
	</g>
</g></g></g></svg>