<?xml version="1.0" encoding="UTF-8" standalone="no"?>
<!-- Created with Inkscape (http://www.inkscape.org/) -->

<svg
   version="1.1"
   id="svg904"
   xml:space="preserve"
   width="223.17732"
   height="346.14252"
   viewBox="0 0 223.17732 346.14252"
   sodipodi:docname="Al_Sadd_SC_Logo.svg"
   inkscape:version="1.1.2 (b8e25be833, 2022-02-05)"
   xmlns:inkscape="http://www.inkscape.org/namespaces/inkscape"
   xmlns:sodipodi="http://sodipodi.sourceforge.net/DTD/sodipodi-0.dtd"
   xmlns="http://www.w3.org/2000/svg"
   xmlns:svg="http://www.w3.org/2000/svg"><defs
     id="defs908"><clipPath
       clipPathUnits="userSpaceOnUse"
       id="clipPath918"><path
         d="M 0,311.811 H 311.811 V 0 H 0 Z"
         id="path916" /></clipPath></defs><sodipodi:namedview
     id="namedview906"
     pagecolor="#ffffff"
     bordercolor="#666666"
     borderopacity="1.0"
     inkscape:pageshadow="2"
     inkscape:pageopacity="0.0"
     inkscape:pagecheckerboard="0"
     showgrid="false"
     inkscape:zoom="0.85550555"
     inkscape:cx="66.042821"
     inkscape:cy="195.20621"
     inkscape:window-width="1366"
     inkscape:window-height="705"
     inkscape:window-x="-8"
     inkscape:window-y="-8"
     inkscape:window-maximized="1"
     inkscape:current-layer="g910" /><g
     id="g910"
     inkscape:groupmode="layer"
     inkscape:label="Clubs logos on light background"
     transform="matrix(1.3333333,0,0,-1.3333333,-117.77502,381.77146)"><g
       id="g912"
       transform="translate(16.117467,0.61990258)"><g
         id="g914"
         clip-path="url(#clipPath918)"><g
           id="g920"
           transform="translate(239.5968,164.5323)"><path
             d="m 0,0 c 0,-46.221 -37.47,-83.691 -83.691,-83.691 -46.222,0 -83.692,37.47 -83.692,83.691 0,46.221 37.47,83.691 83.692,83.691 C -37.47,83.691 0,46.221 0,0"
             style="fill:#ffffff;fill-opacity:1;fill-rule:nonzero;stroke:none"
             id="path922" /></g><g
           id="g924"
           transform="translate(122.4699,208.3691)"><path
             d="m 0,0 c -13.271,-10.055 -21.84,-25.985 -21.84,-43.944 0,-4.869 0.648,-9.582 1.834,-14.075 l -19.168,-8.175 c -2.155,7.034 -3.32,14.504 -3.32,22.25 0,29.084 16.343,54.3 40.343,67.003 l 2.647,-6.393 c -21.507,-11.643 -36.105,-34.4 -36.105,-60.61 0,-4.349 0.404,-8.603 1.175,-12.726 l 6.516,2.779 c -0.528,3.237 -0.807,6.558 -0.807,9.947 0,23.335 12.856,43.632 31.872,54.21 l 7.988,-19.289 c -11.546,-7.324 -19.206,-20.216 -19.206,-34.921 0,-2.951 0.322,-5.823 0.911,-8.597 l -6.444,-2.748 c -0.88,3.637 -1.352,7.435 -1.352,11.345 0,15.077 6.9,28.523 17.714,37.36 L 0,0 M 19.913,-12.175 1.453,32.378 1.442,32.372 1.44,32.378 c -29.856,-12.45 -50.818,-41.912 -50.818,-76.322 0,-11.131 2.198,-21.741 6.176,-31.429 l 0.072,0.031 0.006,-0.031 37.959,16.19 c 0.001,0 0.001,0 0.001,0 l 6.338,2.697 c -1.518,3.887 -2.361,8.114 -2.361,12.542 0,14.309 8.7,26.564 21.1,31.769"
             style="fill:#231f20;fill-opacity:1;fill-rule:nonzero;stroke:none"
             id="path926" /></g><g
           id="g928"
           transform="translate(156.1052,247.1904)"><path
             d="m 0,0 c -8.827,0 -17.325,-1.387 -25.297,-3.945 l 2.652,-6.383 c 7.15,2.234 14.755,3.44 22.645,3.44 41.858,0 75.729,-33.889 75.729,-75.77 0,-41.881 -33.871,-75.77 -75.729,-75.77 -28.992,0 -54.148,16.26 -66.876,40.169 l -6.358,-2.708 c 13.795,-26.372 41.394,-44.349 73.234,-44.349 45.664,0 82.614,36.97 82.614,82.658 C 82.614,-36.97 45.664,0 0,0"
             style="fill:#231f20;fill-opacity:1;fill-rule:nonzero;stroke:none"
             id="path930" /></g><g
           id="g932"
           transform="translate(156.1052,95.6505)"><path
             d="m 0,0 c 38.053,0 68.845,30.808 68.845,68.882 0,38.073 -30.792,68.882 -68.845,68.882 -6.953,0 -13.662,-1.033 -19.987,-2.947 l 2.664,-6.411 c 5.499,1.597 11.306,2.469 17.323,2.469 34.248,0 61.96,-27.727 61.96,-61.993 C 61.96,34.616 34.248,6.888 0,6.888 c -23.293,0 -43.552,12.834 -54.137,31.82 l -6.38,-2.718 C -48.858,14.542 -26.143,0 0,0"
             style="fill:#231f20;fill-opacity:1;fill-rule:nonzero;stroke:none"
             id="path934" /></g><g
           id="g936"
           transform="translate(156.1052,109.4269)"><path
             d="m 0,0 c 30.442,0 55.076,24.647 55.076,55.105 0,30.459 -24.634,55.106 -55.076,55.106 -5.08,0 -9.992,-0.701 -14.661,-1.986 l 2.663,-6.407 c 3.835,0.982 7.855,1.505 11.998,1.505 26.637,0 48.191,-21.566 48.191,-48.218 C 48.191,28.454 26.637,6.888 0,6.888 c -17.593,0 -32.964,9.412 -41.377,23.479 l -6.38,-2.718 C -38.253,11.124 -20.443,0 0,0"
             style="fill:#231f20;fill-opacity:1;fill-rule:nonzero;stroke:none"
             id="path938" /></g><g
           id="g940"
           transform="translate(156.1052,123.2033)"><path
             d="m 0,0 c 22.832,0 41.307,18.485 41.307,41.329 0,22.844 -18.475,41.329 -41.307,41.329 -0.739,0 -1.472,-0.025 -2.201,-0.064 l 2.849,-6.84 C 19.373,75.408 34.422,60.148 34.422,41.329 34.422,22.292 19.027,6.888 0,6.888 c -11.888,0 -22.358,6.014 -28.542,15.17 l -6.425,-2.737 C -27.658,7.712 -14.741,0 0,0"
             style="fill:#231f20;fill-opacity:1;fill-rule:nonzero;stroke:none"
             id="path942" /></g><g
           id="g944"
           transform="translate(141.8276,169.058)"><path
             d="M 0,0 H 2.958 V -10.384 H 0.995 v 8.527 h -2.139 z"
             style="fill:#8c734b;fill-opacity:1;fill-rule:nonzero;stroke:none"
             id="path946" /></g><g
           id="g948"
           transform="translate(151.6977,164.6528)"><path
             d="m 0,0 c 0.367,0 0.676,0.134 0.925,0.402 0.25,0.267 0.374,0.597 0.374,0.993 0,0.403 -0.13,0.741 -0.392,1.014 C 0.646,2.681 0.341,2.816 -0.007,2.816 -0.374,2.816 -0.689,2.682 -0.953,2.412 -1.217,2.143 -1.348,1.805 -1.348,1.401 -1.348,1.002 -1.22,0.669 -0.964,0.402 -0.707,0.134 -0.386,0 0,0 m -0.247,-6.241 -1.68,0.835 1.82,3.535 c -0.882,0 -1.631,0.316 -2.249,0.946 -0.618,0.63 -0.927,1.412 -0.927,2.347 0,0.909 0.317,1.676 0.949,2.303 0.634,0.628 1.398,0.941 2.292,0.941 0.937,0 1.717,-0.325 2.34,-0.976 C 2.923,3.04 3.234,2.291 3.234,1.445 3.234,1.125 3.186,0.804 3.089,0.483 2.992,0.159 2.771,-0.337 2.422,-1.008 Z"
             style="fill:#8c734b;fill-opacity:1;fill-rule:nonzero;stroke:none"
             id="path950" /></g><g
           id="g952"
           transform="translate(159.5911,163.0795)"><path
             d="m 0,0 c -0.367,0 -0.675,-0.134 -0.925,-0.4 -0.25,-0.265 -0.374,-0.598 -0.374,-0.998 0,-0.4 0.131,-0.738 0.392,-1.01 0.261,-0.273 0.566,-0.408 0.914,-0.408 0.367,0 0.683,0.134 0.946,0.401 0.264,0.268 0.395,0.607 0.395,1.017 0,0.4 -0.127,0.733 -0.384,0.998 C 0.708,-0.134 0.387,0 0,0 M 0.248,6.24 1.931,5.398 0.113,1.871 c 0.881,0 1.629,-0.316 2.246,-0.947 0.616,-0.631 0.924,-1.414 0.924,-2.351 0,-0.904 -0.316,-1.668 -0.949,-2.296 -0.633,-0.63 -1.398,-0.943 -2.291,-0.943 -0.937,0 -1.717,0.326 -2.341,0.977 -0.624,0.652 -0.936,1.4 -0.936,2.241 0,0.32 0.049,0.644 0.146,0.968 0.096,0.325 0.318,0.823 0.666,1.495 z"
             style="fill:#8c734b;fill-opacity:1;fill-rule:nonzero;stroke:none"
             id="path954" /></g><g
           id="g956"
           transform="translate(167.8948,164.6528)"><path
             d="m 0,0 c 0.367,0 0.675,0.134 0.925,0.402 0.25,0.267 0.374,0.597 0.374,0.993 0,0.403 -0.131,0.741 -0.392,1.014 C 0.646,2.681 0.341,2.816 -0.008,2.816 -0.374,2.816 -0.69,2.682 -0.953,2.412 -1.217,2.143 -1.348,1.805 -1.348,1.401 -1.348,1.002 -1.221,0.669 -0.964,0.402 -0.708,0.134 -0.387,0 0,0 m -0.248,-6.241 -1.679,0.835 1.819,3.535 c -0.882,0 -1.631,0.316 -2.248,0.946 -0.619,0.63 -0.927,1.412 -0.927,2.347 0,0.909 0.316,1.676 0.948,2.303 0.634,0.628 1.398,0.941 2.292,0.941 0.937,0 1.717,-0.325 2.341,-0.976 C 2.922,3.04 3.233,2.291 3.233,1.445 3.233,1.125 3.185,0.804 3.088,0.483 2.992,0.159 2.769,-0.337 2.421,-1.008 Z"
             style="fill:#8c734b;fill-opacity:1;fill-rule:nonzero;stroke:none"
             id="path958" /></g><g
           id="g960"
           transform="translate(127.3894,256.7787)"><path
             d="M 0,0 8.94,6.83 17.88,0 14.464,11.051 23.405,17.879 H 12.355 L 8.94,28.93 5.525,17.879 h -11.05 l 8.94,-6.828 z"
             style="fill:#8c734b;fill-opacity:1;fill-rule:nonzero;stroke:none"
             id="path962" /></g><g
           id="g964"
           transform="translate(166.5412,256.7787)"><path
             d="M 0,0 8.94,6.83 17.88,0 14.464,11.051 23.405,17.879 H 12.355 L 8.94,28.93 5.525,17.879 h -11.05 l 8.94,-6.828 z"
             style="fill:#8c734b;fill-opacity:1;fill-rule:nonzero;stroke:none"
             id="path966" /></g><g
           id="g968"
           transform="translate(149.3397,41.7859)"><path
             d="M 0,0 V 0.292 C 0,1.085 0.642,1.727 1.435,1.727 H 5.687 V 5.056 H -0.425 C -2.113,5.056 -3.481,3.687 -3.481,2 v -9.04 c 0,-0.888 0.72,-1.608 1.608,-1.608 h 2.918 c 0.792,0 1.434,-0.642 1.434,-1.435 v -0.709 c 0,-0.793 -0.642,-1.435 -1.434,-1.435 h -4.526 v -3.457 h 7.09 c 1.148,0 2.078,0.931 2.078,2.079 v 10.092 c 0,1.147 -0.93,2.078 -2.078,2.078 H 1.435 C 0.642,-1.435 0,-0.792 0,0"
             style="fill:#231f20;fill-opacity:1;fill-rule:nonzero;stroke:none"
             id="path970" /></g><g
           id="g972"
           transform="translate(134.3188,29.5588)"><path
             d="M 0,0 V 17.283 H -3.749 V -3.457 H 7.443 c 0,0 -0.063,3.199 0,3.457 0.001,0.019 -10e-4,-0.02 0,0 -0.022,0 0.023,0 0,0 z"
             style="fill:#231f20;fill-opacity:1;fill-rule:nonzero;stroke:none"
             id="path974" /></g><g
           id="g976"
           transform="translate(119.7124,35.0039)"><path
             d="M 0,0 1.275,5.619 2.356,0 Z M 3.768,11.838 H 0.281 l -4.61,-20.74 h 2.278 l 1.283,5.549 h 3.77 L 4.07,-8.902 h 4.693 z"
             style="fill:#231f20;fill-opacity:1;fill-rule:evenodd;stroke:none"
             id="path978" /></g><g
           id="g980"
           transform="translate(188.0978,69.7128)"><path
             d="M 0,0 C -0.223,0.106 -0.413,0.284 -0.567,0.531 -0.723,0.779 -0.8,1.15 -0.8,1.645 L -2.416,-0.83 -2.765,-1.368 c -0.224,-0.32 -0.335,-0.597 -0.335,-0.83 0,-0.456 1.624,-1.654 1.624,-1.654 l 0.224,-10.121 h -4.614 -1.645 -3.129 c 0.165,0.572 0.247,1.178 0.247,1.819 0,1.824 -1.595,4.862 -3.284,5.888 l -1.885,-3.648 c 0.64,-0.64 2.015,-1.808 2.156,-4.059 h -2.731 -0.182 -1.069 c 0.165,0.572 0.248,1.178 0.248,1.819 0,1.824 -1.596,4.862 -3.285,5.888 l -1.885,-3.648 c 0.64,-0.64 2.015,-1.808 2.156,-4.059 h -2.683 -0.229 -1.022 c 0.165,0.572 0.248,1.178 0.248,1.819 0,1.824 -1.596,4.862 -3.285,5.888 l -1.886,-3.648 c 0.641,-0.64 2.016,-1.808 2.158,-4.059 h -27.785 -0.546 -3.982 l -4.861,8.339 -3.18,0.404 c 0,0 0.781,-3.179 1.055,-4.1 2.896,-1.916 2.663,-4.643 2.663,-4.643 0,0 -8.758,-1.821 -9.257,1.571 l -0.174,-0.349 c -0.418,-1.077 -2.124,-4.605 -0.161,-5.72 1.856,-1.054 9.05,-1.263 11.454,0.49 1.256,0.918 1.437,1.495 1.437,1.495 0,0 1.321,-2.364 3.184,-2.32 h 1.822 0.546 28.803 1.63 1.139 0.229 3.702 1.63 1.186 0.182 3.75 1.631 3.245 1.645 5.837 c 0.243,0.534 0.383,0.854 0.423,0.961 0.213,0.552 0.421,1.115 0.625,1.687 l 0.684,2.039 c 0.233,0.689 0.349,1.46 0.349,2.314 0,0 0.045,5.322 0.059,6.885 0.013,1.563 1.441,3.377 1.441,3.377 L 0.684,-0.32 Z"
             style="fill:#231f20;fill-opacity:1;fill-rule:nonzero;stroke:none"
             id="path982" /></g><g
           id="g984"
           transform="translate(197.6028,62.1146)"><path
             d="M 0,0 -0.276,9.068 -4.12,4.381 -3.464,-5.633 c 0.077,-1.271 0.116,-2.494 0.116,-3.668 0,-1.213 -0.039,-2.257 -0.116,-3.13 1.407,1.388 2.372,2.761 2.896,4.12 0.456,1.232 0.685,2.891 0.685,4.978 0,0.97 -0.04,2.081 -0.117,3.333"
             style="fill:#231f20;fill-opacity:1;fill-rule:nonzero;stroke:none"
             id="path986" /></g><g
           id="g988"
           transform="translate(161.3084,35.0039)"><path
             d="M 0,0 1.275,5.619 2.357,0 Z M 3.769,11.838 H 0.281 l -4.61,-20.74 h 2.278 l 1.283,5.549 h 3.77 L 4.07,-8.902 h 4.693 z"
             style="fill:#231f20;fill-opacity:1;fill-rule:evenodd;stroke:none"
             id="path990" /></g><g
           id="g992"
           transform="translate(180.2429,31.1553)"><path
             d="m 0,0 c 0,-0.878 -0.712,-1.589 -1.589,-1.589 h -1.568 v 13.727 h 1.568 C -0.712,12.138 0,11.426 0,10.549 Z m 0.605,15.687 h -7.229 v -20.74 h 7.229 c 1.581,0 2.863,1.281 2.863,2.862 v 15.015 c 0,1.581 -1.282,2.863 -2.863,2.863"
             style="fill:#231f20;fill-opacity:1;fill-rule:nonzero;stroke:none"
             id="path994" /></g><g
           id="g996"
           transform="translate(193.6596,31.1553)"><path
             d="m 0,0 c 0,-0.878 -0.712,-1.589 -1.589,-1.589 h -1.568 v 13.727 h 1.568 C -0.712,12.138 0,11.426 0,10.549 Z m 0.605,15.687 h -7.229 v -20.74 h 7.229 c 1.581,0 2.863,1.281 2.863,2.862 v 15.015 c 0,1.581 -1.282,2.863 -2.863,2.863"
             style="fill:#231f20;fill-opacity:1;fill-rule:nonzero;stroke:none"
             id="path998" /></g></g></g></g></svg>
