<svg version="1.2" xmlns="http://www.w3.org/2000/svg" viewBox="244.00000000000006 172.00000000000006 1509.9999999999998 2119" width="1510" height="2119">
	<title>al-merreikh-sc-omdurman-seeklogo</title>
	<style>
		.s0 { fill: #ffea00 } 
		.s1 { fill: #000000 } 
		.s2 { fill: #d60303 } 
	</style>
	<g id="Page 1">
		<g id="Group 1">
			<g id="Group 2">
				<path id="Object 3" fill-rule="evenodd" class="s0" d="m243.6 934v601.4l741.5 751.4 757.9-743.5v-1170.8h-185.6l-70.4 123h140.1v1044.5l-641.4 715.9-624.7-719v-572.3z"/>
				<path id="Object 4" fill-rule="evenodd" class="s1" d="m243.6 894.2v39.8l117.4 30.6v572.3l624.9 719.7 641.2-716.6v-1044.5h-140.1l71.7-123h-39.5l-103.8 164.3h165.1v998.4l-593.7 702.9-583.2-705.1v-599.3z"/>
				<path id="Object 5" fill-rule="evenodd" class="s2" d="m403.6 933.7l1011.8-396.9h165.1v998.4l-593.6 702.8-583.3-705z"/>
				<path id="Object 6" fill-rule="evenodd" class="s0" d="m638.8 1687.8v-81.2c0-28.7-17.2-35-38.5-35h-11.6c-21.4 0-38.7 6.3-38.7 35v81.2c0 1.8 1.4 3.2 3.2 3.2h21c1.7 0 3-1.4 3-3.2v-38.7h34.6v38.7c0 1.8 1.1 3.2 2.8 3.2h21.1c1.7 0 3.1-1.4 3.1-3.2zm-27-61.1h-34.6v-20.1c0-8.8 2.7-11.5 11.5-11.5h11.6c8.9 0 11.5 2.7 11.5 11.5zm117 60.3v-14.8c0-1.7-1.4-3.1-3.2-3.1h-27.4c-7.5 0-10.2-2.6-10.2-10.9v-82.3c0-1.7-1.4-3.2-3.2-3.2h-20.8c-1.8 0-3.2 1.5-3.2 3.2v82.3c0 29 18.3 34.3 38.9 34.3 8.4 0 20.6-1 25.9-2.1 2.2-0.5 3.2-1.3 3.2-3.4zm122.3 1.8v-110.5c0-3.3-2.4-5.6-5.8-5.6h-14.9c-3.4 0-5.6 1.6-7 4.3l-24.4 45.4c-0.6 1.3-1.1 2.1-1.8 2.1-0.6 0-1.1-0.8-1.7-2.1l-24.4-45.4c-1.4-2.7-3.6-4.3-7-4.3h-14.9c-3.4 0-5.8 2.1-5.8 5.4v110.7c0 1.7 1.5 2.2 2.7 2.2h21.1c1.4 0 2.5-1.4 2.5-3.2v-66.4c0-1.1 0.5-1.2 0.8-1.2 0.5 0 0.8 0.3 1.3 1.1l14.3 26.3c1.1 1.9 2.7 2.7 4.8 2.7h12.7c2.1 0 3.7-0.8 4.8-2.7l14.3-26.3c0.5-0.8 0.8-1.1 1.3-1.1 0.3 0 0.8 0.1 0.8 1.2v66.4c0 1.8 1.1 3.2 2.5 3.2h21.1c1.2 0 2.7-0.5 2.7-2.2zm94.5-1.8v-14.8c0-1.7-1.4-3.1-3.2-3.1h-32.3c-7.5 0-10.2-2.6-10.2-10.9v-16.9h41.3c1.7 0 3.2-1.4 3.2-3.1v-15.2c0-1.7-1.5-3.1-3.2-3.1h-41.3v-14.5c0-8.3 2.7-10.9 10.2-10.9h32.3c1.8 0 3.2-1.4 3.2-3.1v-14.9c0-2-0.9-2.8-3.2-3.1-5.5-0.8-13.5-2.1-30.7-2.1-20.5 0-38.8 5.1-38.8 34.1v52.8c0 29 18.1 34.3 38.7 34.3 17.2 0 25.3-1.3 30.8-2.1 2.3-0.3 3.2-1.3 3.2-3.4zm111.5 2.1c0-0.5-0.2-1.1-0.5-1.7l-24-44.9c11.6-4.7 20.5-15 20.5-31.9v-2c0-28.2-20.9-37.3-47.9-37.3-11.5 0-25 1-32.3 2.1-5 0.8-7.2 2.2-7.2 7.6v106.8c0 1.8 1.4 3.2 3.2 3.2h20.7c1.7 0 3.2-1.4 3.2-3.2v-40.4c3 0 7.9 0.3 11.3 0.3l1.7-0.1 21.3 40.2c0.8 1.6 1.5 3.2 3.2 3.2h24.4c1.7 0 2.4-0.8 2.4-1.9zm-31.1-78.5c0 10.8-5.2 15.1-21.9 15.1-1.8 0-9.6-0.1-11.3-0.3v-30.5c1.9-0.2 10.1-0.5 12.4-0.5 13.4 0 20.8 4.4 20.8 14.2zm139.3 78.4c0-0.4-0.1-1.1-0.4-1.7l-24.1-44.9c11.6-4.6 20.6-15 20.6-31.8v-2.1c0-28.2-20.9-37.3-48-37.3-11.4 0-25 1-32.3 2.1-4.9 0.8-7.1 2.2-7.1 7.6v106.9c0 1.7 1.4 3.2 3.1 3.2h20.7c1.8 0 3.2-1.5 3.2-3.2v-40.5c3 0 8 0.3 11.3 0.3l1.8-0.1 21.3 40.3c0.8 1.6 1.4 3.2 3.2 3.2h24.4c1.7 0 2.3-0.8 2.3-2zm-31-78.4c0 10.8-5.3 15.1-22 15.1-1.7 0-9.5-0.2-11.3-0.3v-30.6c1.9-0.2 10.2-0.5 12.4-0.5 13.4 0 20.9 4.5 20.9 14.2zm75.1 77.2v-112.1c0-1.7-1.2-3-3-3h-21.3c-1.8 0-2.9 1.3-2.9 3v112.1c0 1.8 1.1 3.2 2.9 3.2h21.3c1.8 0 3-1.4 3-3.2zm115-113.4c0-0.9-0.8-1.7-2.6-1.7h-24.3c-1.8 0-2.7 0.6-3.5 1.9l-35 51.7v-50.6c0-1.7-1.5-3-3.2-3h-20.9c-1.7 0-3.2 1.3-3.2 3v112.1c0 1.8 1.5 3.2 3.2 3.2h20.9c1.7 0 3.2-1.4 3.2-3.2v-51.6l32.3 52.6c0.8 1.2 1.6 2.2 3.5 2.2h27.4c1.4 0 2.2-0.7 2.2-1.6 0-0.5-0.2-1.1-0.6-1.8l-38.1-57.1 37.9-53.8c0.5-0.8 0.8-1.6 0.8-2.3zm109.1 113.4v-112.1c0-1.7-1.5-3-3.2-3h-20.9c-1.7 0-3.2 1.3-3.2 3v42.4h-39.3v-42.4c0-1.7-1.4-3-3.2-3h-20.8c-1.8 0-3.2 1.3-3.2 3v112.1c0 1.8 1.4 3.2 3.2 3.2h20.8c1.8 0 3.2-1.4 3.2-3.2v-46h39.3v46c0 1.8 1.5 3.2 3.2 3.2h20.9c1.7 0 3.2-1.4 3.2-3.2z"/>
				<path id="Object 7" fill-rule="evenodd" class="s0" d="m988.6 1790.6c0-8.5-3.4-15.4-15.1-21.3l-14.3-7.2c-6.1-3.1-7.5-4.5-7.5-7.4 0-3.8 2.3-5.6 8.7-5.6 7.6 0 20.6 1 23.7 1.2 0.2 0 0.3 0 0.3 0 1.4 0 1.9-0.8 1.9-1.8v-10.6c0-1.2-0.8-1.7-1.7-1.9-4.3-1-15.6-2.3-23.8-2.3-21.7 0-28.6 8.9-28.6 20.5 0 7.6 2.8 14.3 13.2 20l15.4 8.6c5.9 3.3 7.4 5 7.4 8 0 5.1-2.2 7.4-9.9 7.4-4.4 0-16.7-0.9-21.3-1.3q-0.2 0-0.4 0c-1.1 0-2 0.5-2 2v10.3c0 1.2 1.1 1.8 2.3 2.1 5.7 1.4 12.3 2.3 21.1 2.3 22.8 0 30.6-11.8 30.6-23zm63 18.8v-10.2c0-1.2-0.7-2.1-2.2-2.1 0 0-0.2 0-0.3 0-4.2 0.3-10.4 0.9-16.5 0.9-7.8 0-13.9-3.8-13.9-17.8v-13.2c0-14 6.1-17.8 13.9-17.8 6.1 0 12.3 0.6 16.5 0.9 0.1 0 0.3 0 0.3 0 1.5 0 2.2-0.9 2.2-2.1v-10.2c0-1.5-0.9-1.9-2.5-2.3-2.3-0.8-8.8-1.8-16.7-1.8-17 0-33.1 8.3-33.1 33.3v13.2c0 25 16.1 33.4 33.1 33.4 7.9 0 14.4-1 16.7-1.8 1.6-0.4 2.5-0.9 2.5-2.4z"/>
				<path id="Object 8" fill-rule="evenodd" class="s0" d="m694.2 175.7l34.9 520.1-485.4 198.9 510.9 124.6 38.7 519.1 276.5-442.4 513.1 126.9-342.9-406.7 279.2-443.6-486.1 200.6z"/>
				<g id="Group 9">
					<path id="Object 10" fill-rule="evenodd" class="s0" d="m860.7 1896.6l20.9-10.8h16.6v74.4h-23.2v-54.8l-8.2 4.6h-6.1z"/>
					<path id="Object 11" fill-rule="evenodd" class="s0" d="m995.3 1893.1c16.2-9.2 39.6-9 50.5-1.5 12.8 10.1 8.9 25.4-3.6 35.8l-23.1 18.2h34.8v14.6h-61.3v-14.6l31.5-25.9c8.3-7.3 7.6-15.5 0.1-18.3-8.7-1.6-15.3 0.1-20.2 4.6h-8.7z"/>
					<path id="Object 12" fill-rule="evenodd" class="s0" d="m1066.1 1885.8h59.9v17.1l-27.3 57.3h-23.2v-5.8l32.4-52.7h-41.8z"/>
					<path id="Object 13" fill-rule="evenodd" class="s0" d="m926.6 1889.1c20.7-8.7 46.1-2.4 53 17.5 7.5 22-3.1 43.1-18.9 49.8-12.4 5.3-31.3 4.5-44.4 0.8q0-6.7 0-13.4 4.3 0 8.6 0c10.8 6.5 32.5 5 32.3-15.2-21.2 9-40.7 1.7-43.9-9.8-4.7-16.6 3.2-25.4 13.3-29.7zm31.5 28.6c-11.5 4.6-20.6 4.2-24-4.1-2.3-5.6 0.1-15.6 10.5-15.6 10.4 0 13.3 6.5 13.5 19.7z"/>
				</g>
			</g>
		</g>
	</g>
</svg>