<?xml version="1.0" encoding="UTF-8" standalone="no"?>
<!DOCTYPE svg PUBLIC "-//W3C//DTD SVG 1.1//EN" "http://www.w3.org/Graphics/SVG/1.1/DTD/svg11.dtd">
<svg xmlns="http://www.w3.org/2000/svg" version="1.1" viewBox="0 0 200 200" width="200.0pt" height="200.0pt">
<path d="M 0.00 0.00 L 200.00 0.00 L 200.00 200.00 L 0.00 200.00 L 0.00 0.00 Z" fill="#ffffff" />
<path d="M 115.78 7.36 C 124.76 12.56 130.57 21.77 131.39 32.12 C 144.21 32.16 157.07 32.10 169.89 32.15 C 171.37 32.38 171.79 33.48 172.09 34.78 C 172.00 52.44 171.18 69.62 167.60 86.96 C 162.15 113.44 150.62 138.02 135.01 160.01 C 125.77 173.07 114.75 185.31 102.13 195.20 C 101.27 196.07 99.50 196.16 98.54 195.48 C 82.95 183.20 70.21 168.13 59.55 151.45 C 44.07 127.42 33.63 100.45 30.31 71.99 C 28.68 59.42 28.19 46.54 28.38 33.87 C 28.82 33.07 29.41 32.50 30.13 32.16 C 43.08 32.07 56.06 32.20 69.02 32.10 C 69.75 19.23 79.20 7.90 91.51 4.38 C 99.58 1.95 108.52 3.10 115.78 7.36 Z" fill="#030000" />
<path d="M 110.70 10.28 C 119.98 14.29 126.34 23.93 126.44 34.02 C 126.40 35.90 127.25 36.64 129.00 37.05 C 141.69 37.16 154.41 37.00 167.10 37.13 C 167.13 50.41 166.36 63.81 164.39 76.96 C 159.44 109.79 144.78 140.32 124.21 166.19 C 117.02 175.12 109.11 183.37 100.13 190.52 C 92.53 184.28 85.53 177.35 79.15 169.88 C 59.04 145.80 43.97 116.88 37.56 86.07 C 34.33 70.01 33.19 53.46 33.27 37.11 C 45.85 37.04 58.49 37.12 71.08 37.07 C 72.92 36.79 73.95 35.99 73.86 34.01 C 74.08 25.19 78.70 16.91 86.12 12.15 C 93.27 7.45 102.92 6.82 110.70 10.28 Z" fill="#fcb52d" />
<path d="M 100.00 12.74 C 111.83 12.50 121.79 22.60 121.83 34.35 C 107.42 34.47 92.98 34.46 78.57 34.36 C 78.42 22.71 88.36 12.69 100.00 12.74 Z" fill="#030000" />
<path d="M 99.01 14.40 C 109.85 13.67 119.26 22.07 120.15 32.83 C 115.11 33.01 110.05 32.78 105.00 32.97 C 106.77 31.17 108.24 29.40 108.44 26.76 C 108.91 21.93 104.82 17.63 100.00 17.73 C 95.59 17.81 91.93 21.62 91.82 26.00 C 91.87 28.84 93.30 31.08 95.39 32.89 C 90.33 32.85 85.26 33.00 80.21 32.81 C 80.97 22.96 89.09 14.86 99.01 14.40 Z" fill="#ffffff" />
<path d="M 97.11 20.00 C 101.55 17.70 106.94 21.03 106.89 25.99 C 107.00 31.41 100.84 34.70 96.41 31.64 C 92.15 28.74 92.56 22.36 97.11 20.00 Z" fill="#fcb52d" />
<path d="M 38.26 41.82 C 57.64 41.77 77.04 41.80 96.42 41.80 C 96.56 45.65 96.45 49.51 96.48 53.36 C 89.34 60.07 82.08 66.70 74.82 73.29 C 64.24 73.73 51.32 73.38 40.45 73.47 C 38.84 63.14 38.16 52.26 38.26 41.82 Z" fill="#030000" />
<path d="M 103.83 41.82 C 123.29 41.79 142.77 41.77 162.22 41.82 C 162.12 52.36 161.42 62.93 160.02 73.38 C 148.61 73.61 137.13 73.43 125.70 73.48 C 118.45 66.78 110.91 60.08 103.80 53.27 C 103.83 49.45 103.78 45.63 103.83 41.82 Z" fill="#030000" />
<path d="M 94.88 43.52 C 94.84 46.62 94.88 49.72 94.82 52.82 C 88.00 59.02 80.96 65.62 74.03 71.85 C 63.30 71.87 52.52 71.92 41.79 71.83 C 40.47 62.49 39.97 52.93 39.76 43.50 C 58.12 43.45 76.53 43.41 94.88 43.52 Z" fill="#ffffff" />
<path d="M 160.71 43.53 C 160.23 52.99 159.90 62.42 158.59 71.82 C 147.82 71.91 137.02 71.89 126.25 71.83 C 119.34 65.51 112.37 59.15 105.52 52.77 C 105.41 49.69 105.55 46.60 105.44 43.52 C 123.84 43.44 142.31 43.41 160.71 43.53 Z" fill="#ffffff" />
<path d="M 55.90 47.50 C 55.88 52.35 55.83 57.20 55.90 62.05 C 56.46 63.88 57.15 64.39 59.00 64.75 C 61.39 64.95 64.56 65.34 66.04 62.95 C 66.55 57.82 66.09 52.44 66.27 47.25 C 68.70 47.19 71.18 47.19 73.61 47.25 C 73.66 52.45 73.65 57.65 73.62 62.85 C 72.41 66.10 69.07 66.69 66.04 67.16 C 61.51 67.55 56.37 67.64 52.07 66.01 C 50.56 65.38 48.56 63.81 48.65 62.03 C 48.70 57.18 48.69 52.33 48.65 47.48 C 51.05 47.40 53.50 47.39 55.90 47.50 Z" fill="#ea2b25" />
<path d="M 126.68 47.06 C 132.55 47.35 138.78 46.64 144.50 47.79 C 147.87 48.57 151.19 49.94 152.71 53.27 C 154.51 57.26 153.27 62.15 149.32 64.28 C 142.95 68.04 133.84 66.43 126.64 66.86 C 126.67 60.27 126.58 53.66 126.68 47.06 Z" fill="#ea2b25" />
<path d="M 133.89 49.66 C 137.32 49.82 140.65 49.33 143.66 51.32 C 146.88 53.18 147.09 58.41 145.25 61.25 C 142.67 64.50 137.61 64.28 133.89 64.36 C 133.86 59.46 133.86 54.56 133.89 49.66 Z" fill="#ffffff" />
<path d="M 100.13 60.09 C 107.83 66.98 115.29 74.14 122.94 80.91 C 134.83 80.92 146.78 80.91 158.68 80.91 C 157.74 87.67 155.81 94.39 153.87 100.94 L 153.26 102.62 C 118.06 102.63 82.16 102.74 47.02 102.57 C 46.69 101.62 46.38 100.66 46.08 99.69 C 44.28 93.54 42.60 87.26 41.60 80.93 C 53.52 80.83 65.67 81.03 77.56 80.83 C 84.40 74.62 91.18 68.33 97.98 62.07 C 98.69 61.40 99.40 60.74 100.13 60.09 Z" fill="#030000" />
<path d="M 100.12 62.20 C 107.53 68.85 114.75 75.72 122.14 82.38 C 133.72 82.55 145.35 82.35 156.93 82.48 C 155.63 88.71 154.21 95.05 152.05 101.04 C 119.10 101.15 85.97 101.05 53.00 101.09 C 51.44 101.08 49.81 101.18 48.27 100.92 C 46.06 95.00 44.75 88.68 43.42 82.51 C 54.99 82.33 66.59 82.53 78.16 82.41 C 84.78 76.32 91.48 70.28 98.04 64.12 C 98.72 63.47 99.42 62.83 100.12 62.20 Z" fill="#1a5fa9" />
<path d="M 55.10 84.75 C 56.38 84.66 57.67 84.65 58.97 84.71 C 60.86 89.40 62.54 94.19 64.38 98.90 C 63.21 98.93 62.04 98.93 60.87 98.89 C 60.28 97.89 60.12 96.71 59.46 95.73 C 57.83 95.72 56.20 95.72 54.58 95.74 C 54.18 96.79 53.80 97.83 53.43 98.88 C 52.28 98.94 51.12 98.93 49.96 98.84 C 51.60 94.12 53.38 89.44 55.10 84.75 Z" fill="#ffffff" />
<path d="M 67.07 84.73 C 68.22 84.68 69.37 84.67 70.52 84.70 C 70.61 88.80 70.50 92.90 70.57 97.01 C 72.91 97.23 75.30 96.96 77.65 97.16 L 77.60 98.77 C 74.11 98.93 70.58 98.83 67.08 98.77 C 67.07 94.09 67.12 89.41 67.07 84.73 Z" fill="#ffffff" />
<path d="M 79.87 84.72 C 81.01 84.67 82.15 84.66 83.30 84.69 C 84.74 86.26 85.94 88.04 87.35 89.64 C 88.70 88.06 89.80 86.30 91.19 84.75 C 92.38 84.66 93.59 84.65 94.80 84.72 C 94.73 89.40 94.82 94.09 94.76 98.77 C 93.59 98.84 92.41 98.84 91.24 98.77 C 91.16 95.41 91.26 92.04 91.24 88.68 C 89.72 90.21 88.78 92.20 87.11 93.55 C 85.82 92.03 84.79 90.35 83.38 88.93 C 83.32 92.22 83.46 95.52 83.37 98.81 C 82.18 98.86 81.01 98.84 79.85 98.74 C 79.84 94.07 79.80 89.39 79.87 84.72 Z" fill="#ffffff" />
<path d="M 99.20 84.73 C 102.50 84.66 105.86 84.67 109.16 84.72 L 109.23 86.58 C 107.07 86.65 104.92 86.56 102.76 86.63 C 102.72 87.94 102.71 89.25 102.72 90.56 C 104.65 90.60 106.60 90.49 108.52 90.60 C 108.56 91.25 108.56 91.89 108.54 92.55 C 106.62 92.67 104.69 92.55 102.76 92.63 C 102.69 94.03 102.69 95.43 102.76 96.82 C 104.91 96.87 107.06 96.79 109.21 96.86 L 109.20 98.79 C 105.88 98.81 102.55 98.88 99.23 98.75 C 99.19 94.08 99.26 89.40 99.20 84.73 Z" fill="#ffffff" />
<path d="M 114.57 84.72 C 117.44 84.76 123.30 83.99 124.76 87.26 C 126.02 89.59 124.37 90.67 122.65 91.88 C 125.08 93.62 126.22 95.89 126.90 98.74 C 125.65 98.83 124.41 98.85 123.19 98.79 C 122.03 96.76 121.02 92.11 117.94 92.70 C 117.83 94.71 117.95 96.69 118.13 98.69 C 116.95 98.82 115.77 98.86 114.59 98.82 C 114.55 94.12 114.58 89.42 114.57 84.72 Z" fill="#ffffff" />
<path d="M 129.65 84.53 C 130.85 84.48 132.05 84.48 133.26 84.52 C 133.24 89.21 133.24 93.90 133.26 98.59 C 132.07 98.64 130.86 98.64 129.66 98.59 C 129.65 93.90 129.65 89.21 129.65 84.53 Z" fill="#ffffff" />
<path d="M 141.19 85.23 L 141.50 84.66 C 142.74 84.66 143.98 84.68 145.21 84.73 C 146.99 89.44 148.71 94.17 150.42 98.90 C 149.24 98.93 148.05 98.92 146.87 98.89 C 146.53 97.86 146.20 96.83 145.88 95.79 C 144.19 95.68 142.49 95.71 140.79 95.76 C 140.36 96.79 139.93 97.82 139.51 98.86 C 138.35 98.94 137.19 98.94 136.03 98.85 C 137.70 94.31 139.36 89.71 141.19 85.23 Z" fill="#ffffff" />
<path d="M 118.35 86.40 C 119.63 86.62 121.82 87.26 121.25 88.97 C 121.42 90.74 119.34 90.96 118.04 90.76 C 117.82 89.27 117.71 87.81 118.35 86.40 Z" fill="#1a5fa9" />
<path d="M 57.08 88.37 C 57.84 90.13 58.48 91.94 59.03 93.78 C 57.78 93.86 56.54 93.89 55.29 93.86 C 55.77 91.99 56.49 90.22 57.08 88.37 Z" fill="#1a5fa9" />
<path d="M 143.12 88.39 C 143.91 90.14 144.51 91.93 145.11 93.75 C 143.83 93.85 142.55 93.89 141.28 93.86 C 141.80 92.01 142.56 90.24 143.12 88.39 Z" fill="#1a5fa9" />
<path d="M 46.08 99.69 C 46.38 100.66 46.69 101.62 47.02 102.57 C 82.16 102.74 118.06 102.63 153.26 102.62 L 153.87 100.94 L 153.24 102.72 C 149.34 103.65 145.00 103.13 141.00 103.20 C 111.01 103.21 80.98 103.15 50.99 103.24 C 49.53 103.19 48.00 103.12 46.56 102.83 C 46.38 101.79 46.22 100.74 46.08 99.69 Z" fill="#fcb52d" />
<path d="M 49.64 110.20 C 83.31 110.08 117.03 110.06 150.70 110.21 C 145.20 124.90 137.69 138.91 128.82 151.83 C 120.68 163.66 111.16 174.94 100.13 184.16 C 91.96 177.24 84.72 169.32 78.12 160.91 C 66.31 145.53 56.44 128.37 49.64 110.20 Z" fill="#030000" />
<path d="M 51.88 111.73 C 55.76 111.70 59.67 111.68 63.55 111.74 C 63.49 119.85 63.52 127.97 63.55 136.08 C 59.03 128.26 55.27 120.10 51.88 111.73 Z" fill="#ffffff" />
<path d="M 63.55 111.74 C 68.40 111.68 73.25 111.72 78.10 111.72 C 78.20 127.21 78.21 142.72 78.09 158.21 C 72.76 151.22 67.86 143.75 63.55 136.08 C 63.52 127.97 63.49 119.85 63.55 111.74 Z" fill="#ea2b25" />
<path d="M 78.10 111.72 C 83.03 111.70 87.97 111.70 92.90 111.72 C 92.81 114.70 92.79 117.67 92.92 120.66 C 87.17 123.33 82.92 128.62 81.99 134.95 C 80.70 143.16 85.47 151.11 92.92 154.52 C 92.77 161.42 92.83 168.35 92.90 175.25 C 87.55 169.95 82.60 164.24 78.09 158.21 C 78.21 142.72 78.20 127.21 78.10 111.72 Z" fill="#ffffff" />
<path d="M 92.90 111.72 C 97.75 111.72 102.60 111.68 107.45 111.74 C 107.54 114.73 107.37 117.75 107.56 120.74 C 102.61 118.67 97.91 118.77 92.92 120.66 C 92.79 117.67 92.81 114.70 92.90 111.72 Z" fill="#ea2b25" />
<path d="M 107.45 111.74 C 112.36 111.68 117.27 111.70 122.18 111.73 C 122.30 127.17 122.01 142.67 122.33 158.11 C 117.77 164.19 112.74 169.94 107.43 175.38 C 107.49 168.42 107.53 161.45 107.42 154.49 C 112.63 152.13 116.63 147.54 118.00 141.95 C 120.16 133.26 115.59 124.45 107.56 120.74 C 107.37 117.75 107.54 114.73 107.45 111.74 Z" fill="#ffffff" />
<path d="M 122.18 111.73 C 127.06 111.70 131.94 111.70 136.82 111.73 C 136.79 119.85 136.80 127.99 136.81 136.11 C 132.46 143.74 127.63 151.10 122.33 158.11 C 122.01 142.67 122.30 127.17 122.18 111.73 Z" fill="#ea2b25" />
<path d="M 136.82 111.73 C 140.69 111.71 144.57 111.68 148.44 111.74 C 145.11 120.11 141.24 128.26 136.81 136.11 C 136.80 127.99 136.79 119.85 136.82 111.73 Z" fill="#ffffff" />
<path d="M 107.56 120.74 C 115.59 124.45 120.16 133.26 118.00 141.95 C 116.63 147.54 112.63 152.13 107.42 154.49 C 102.63 156.47 97.72 156.38 92.92 154.52 C 85.47 151.11 80.70 143.16 81.99 134.95 C 82.92 128.62 87.17 123.33 92.92 120.66 C 97.91 118.77 102.61 118.67 107.56 120.74 Z" fill="#030000" />
<path d="M 106.17 121.60 C 105.34 122.07 104.45 122.41 103.50 122.61 C 99.15 123.64 95.54 126.40 92.97 130.01 C 92.22 130.82 91.38 132.45 90.08 132.09 C 88.16 130.99 86.01 128.16 87.88 126.09 C 92.45 120.84 99.67 119.62 106.17 121.60 Z" fill="#b66b29" />
<path d="M 108.92 123.18 C 110.90 124.17 112.59 126.09 114.04 127.73 C 109.40 127.45 105.10 129.61 102.03 132.98 C 101.13 133.85 100.34 135.23 99.11 135.55 C 97.25 135.16 94.62 135.16 93.25 133.71 L 93.25 132.26 C 96.37 126.43 102.42 123.34 108.92 123.18 Z" fill="#b66b29" />
<path d="M 113.86 129.21 C 115.86 129.76 116.26 132.52 116.72 134.23 C 118.33 142.03 114.08 150.13 106.74 153.20 C 109.27 148.38 111.22 143.59 110.54 138.03 C 110.33 135.52 109.12 133.40 108.60 130.99 C 108.86 128.97 112.38 129.16 113.86 129.21 Z" fill="#b66b29" />
<path d="M 85.60 129.13 C 88.56 134.37 93.37 136.02 98.90 137.23 C 99.52 139.14 100.21 144.04 97.75 144.84 C 91.53 144.37 85.74 141.01 83.53 134.95 C 83.85 133.01 84.42 130.73 85.60 129.13 Z" fill="#b66b29" />
<path d="M 105.95 131.84 C 107.87 132.78 107.94 134.59 108.53 136.43 C 109.76 142.12 108.07 147.38 105.25 152.27 C 104.20 155.67 98.53 154.30 95.90 154.04 C 100.38 149.33 101.59 143.25 100.62 136.94 C 101.46 134.86 103.84 132.63 105.95 131.84 Z" fill="#b66b29" />
<path d="M 83.06 138.13 C 85.09 140.54 86.78 142.89 89.76 144.23 C 92.45 145.65 95.47 145.82 98.21 146.96 C 98.31 149.36 95.77 153.49 92.95 152.74 C 88.28 150.89 84.75 146.17 83.71 141.31 C 83.47 140.26 83.25 139.20 83.06 138.13 Z" fill="#b66b29" />
<path d="M 92.92 154.52 C 97.72 156.38 102.63 156.47 107.42 154.49 C 107.53 161.45 107.49 168.42 107.43 175.38 C 105.07 177.68 102.69 180.06 100.09 182.10 C 97.66 179.85 95.18 177.65 92.90 175.25 C 92.83 168.35 92.77 161.42 92.92 154.52 Z" fill="#ea2b25" />
</svg>