<?xml version="1.0" encoding="UTF-8" standalone="no"?>
<!DOCTYPE svg PUBLIC "-//W3C//DTD SVG 1.1//EN" "http://www.w3.org/Graphics/SVG/1.1/DTD/svg11.dtd">
<svg xmlns="http://www.w3.org/2000/svg" version="1.1" viewBox="0 0 200 200" width="200.0pt" height="200.0pt">
<path d="M 0.00 0.00 L 94.18 0.00 C 65.04 2.18 36.60 16.54 14.75 35.53 C 13.07 59.79 15.62 84.12 23.68 107.14 C 29.69 124.46 38.74 140.57 50.10 154.94 C 61.66 169.60 75.57 182.35 90.58 193.41 C 93.50 195.66 96.65 197.49 99.37 200.00 L 0.00 200.00 L 0.00 0.00 Z" fill="#ffffff" />
<path d="M 94.18 0.00 L 106.12 0.00 L 106.81 0.09 C 133.34 2.29 158.59 14.42 179.39 30.63 C 181.14 32.33 184.67 34.05 185.23 36.48 C 186.97 60.22 184.20 84.63 176.32 107.14 C 166.61 135.18 149.13 159.44 127.06 179.10 C 118.66 186.74 109.54 193.40 100.32 200.00 L 99.37 200.00 C 96.65 197.49 93.50 195.66 90.58 193.41 C 75.57 182.35 61.66 169.60 50.10 154.94 C 38.74 140.57 29.69 124.46 23.68 107.14 C 15.62 84.12 13.07 59.79 14.75 35.53 C 36.60 16.54 65.04 2.18 94.18 0.00 Z" fill="#198a4b" />
<path d="M 106.12 0.00 L 200.00 0.00 L 200.00 200.00 L 100.32 200.00 C 109.54 193.40 118.66 186.74 127.06 179.10 C 149.13 159.44 166.61 135.18 176.32 107.14 C 184.20 84.63 186.97 60.22 185.23 36.48 C 184.67 34.05 181.14 32.33 179.39 30.63 C 158.59 14.42 133.34 2.29 106.81 0.09 L 106.12 0.00 Z" fill="#ffffff" />
<path d="M 109.00 3.52 C 134.61 6.01 159.52 18.68 179.41 34.61 C 180.38 35.55 182.28 36.56 182.23 38.07 C 183.11 51.38 182.51 64.83 180.37 78.00 C 156.26 77.68 132.12 77.98 108.00 77.85 C 106.01 77.84 104.02 77.87 102.04 78.02 C 101.68 89.00 101.98 100.02 101.88 111.00 C 101.95 115.73 101.63 120.28 102.22 124.99 L 102.23 125.07 C 102.02 127.38 101.83 129.68 101.86 132.00 C 101.96 152.96 101.78 173.93 101.95 194.89 C 101.32 195.30 100.68 195.71 100.04 196.12 C 99.94 168.63 100.04 141.15 99.99 113.66 L 100.00 113.00 C 99.98 101.31 100.03 89.62 99.98 77.93 C 73.15 77.68 46.29 78.05 19.47 77.75 C 17.71 64.55 16.57 50.25 18.00 37.01 C 24.78 30.71 32.83 25.49 40.76 20.73 C 61.59 8.68 84.69 1.21 109.00 3.52 Z" fill="#ffffff" />
<path d="M 106.06 7.11 C 108.34 7.23 110.86 7.22 113.02 7.98 C 114.90 12.12 116.02 16.67 117.55 20.96 C 118.77 17.01 118.90 12.69 119.59 8.59 C 121.25 8.70 122.92 8.78 124.58 8.85 C 124.02 15.07 122.44 21.18 121.94 27.43 C 119.40 27.41 116.93 27.13 114.44 26.67 C 113.22 22.41 111.75 18.23 110.41 14.00 C 108.82 17.68 108.93 21.99 108.09 25.97 C 106.43 25.86 104.77 25.75 103.11 25.65 C 103.87 19.47 104.93 13.23 106.06 7.11 Z" fill="#198a4b" />
<path d="M 87.50 13.58 C 90.26 14.95 90.21 17.70 90.92 20.33 C 87.94 21.27 84.76 21.54 81.96 22.87 C 84.52 25.66 87.03 23.77 90.02 23.08 C 90.04 24.38 90.05 25.68 90.06 26.98 C 86.86 28.01 83.32 29.59 80.00 28.10 C 76.63 26.56 75.77 21.74 76.59 18.49 C 77.83 14.13 83.54 12.24 87.50 13.58 Z" fill="#198a4b" />
<path d="M 140.34 18.66 C 142.69 21.06 141.32 24.25 140.25 26.89 C 137.39 25.96 134.60 24.96 131.63 24.46 C 131.89 28.18 135.19 27.82 137.96 28.51 C 137.63 29.68 137.32 30.85 136.91 32.00 C 133.48 31.63 129.96 31.23 127.47 28.57 C 125.03 25.79 126.31 21.03 128.52 18.50 C 131.52 15.05 137.20 15.91 140.34 18.66 Z" fill="#198a4b" />
<path d="M 60.16 16.37 C 60.58 17.91 61.03 19.45 61.48 20.99 C 63.60 19.50 65.27 17.90 68.00 17.66 C 69.80 17.49 71.21 18.42 71.88 20.07 C 73.32 23.34 74.19 26.86 75.47 30.20 C 73.73 31.12 72.16 31.73 70.22 32.10 C 69.31 29.20 68.64 25.69 66.78 23.24 C 65.24 22.48 64.04 23.45 63.53 24.92 C 63.50 27.95 65.14 30.99 65.80 33.94 C 64.43 35.11 62.26 35.50 60.53 35.86 C 59.18 29.77 56.70 24.14 54.98 18.18 C 56.69 17.54 58.42 16.94 60.16 16.37 Z" fill="#198a4b" />
<path d="M 82.22 17.24 C 83.77 15.68 86.63 17.99 84.10 19.18 C 82.17 20.06 81.25 19.19 82.22 17.24 Z" fill="#d4e9de" />
<path d="M 51.51 20.12 C 52.00 21.38 52.50 22.63 53.01 23.89 C 51.89 24.68 48.82 25.39 48.76 26.87 C 50.55 31.18 52.91 35.28 54.86 39.52 C 53.08 40.49 51.31 41.37 49.38 42.01 C 47.66 37.57 45.56 33.24 43.22 29.10 C 41.73 30.04 40.23 30.99 38.73 31.93 C 38.08 30.63 37.44 29.33 36.82 28.02 C 41.65 25.34 46.42 22.26 51.51 20.12 Z" fill="#198a4b" />
<path d="M 135.01 19.68 C 137.21 20.02 136.54 21.04 136.78 22.72 C 135.48 22.44 134.18 22.14 132.89 21.82 C 133.13 20.50 133.84 19.78 135.01 19.68 Z" fill="#abd4bd" />
<path d="M 146.01 20.00 C 147.31 20.80 149.93 21.39 150.48 22.85 C 150.01 25.36 149.31 27.81 148.99 30.35 C 151.35 28.77 152.95 26.73 154.99 24.71 C 156.34 25.56 159.45 26.13 159.80 27.80 C 159.24 30.49 158.45 33.09 158.18 35.83 C 160.20 33.88 161.99 31.66 164.10 29.82 C 165.55 29.39 167.38 31.22 168.64 31.85 C 164.93 35.06 161.39 38.52 157.59 41.60 C 156.02 42.05 153.66 39.94 152.25 39.29 C 153.07 36.81 153.79 34.34 154.09 31.74 C 151.68 33.23 150.04 35.22 147.98 37.16 C 146.36 36.37 144.74 35.57 143.12 34.78 C 144.05 29.85 144.95 24.91 146.01 20.00 Z" fill="#198a4b" />
<path d="M 105.12 32.78 C 111.03 35.52 113.27 43.17 109.64 48.62 C 108.09 50.74 105.30 53.84 102.39 52.36 C 103.68 50.95 104.90 49.59 105.47 47.71 C 106.38 48.87 107.80 49.29 109.03 48.31 C 109.83 46.85 110.92 44.68 110.23 43.04 C 109.23 40.59 110.58 38.57 108.54 36.47 C 106.97 34.50 105.77 35.75 103.72 36.00 C 103.69 37.36 103.65 38.72 103.60 40.07 C 104.78 41.11 105.93 42.06 107.42 42.60 C 106.34 43.67 105.61 44.94 104.77 46.19 C 102.20 46.50 100.54 45.31 98.31 47.37 C 98.29 49.41 98.94 51.24 98.38 53.31 C 95.03 52.72 91.78 50.41 90.86 47.02 C 91.60 47.56 92.33 48.10 93.06 48.65 C 94.27 47.17 94.39 46.12 94.45 44.28 C 94.83 46.66 94.95 46.78 97.19 47.94 C 98.35 47.09 99.93 46.41 100.69 45.17 C 100.45 43.47 100.04 42.47 98.71 41.44 C 99.30 41.50 99.88 41.56 100.47 41.62 C 101.46 41.13 102.44 40.64 103.42 40.13 C 103.36 38.81 103.28 37.49 103.20 36.17 C 101.27 35.27 100.10 34.48 98.93 32.66 C 96.48 33.41 94.02 33.85 93.01 36.56 C 95.76 37.07 96.65 36.97 98.95 35.49 C 98.28 35.99 97.62 36.50 96.95 37.01 C 96.88 38.24 96.80 39.47 96.73 40.70 C 95.82 41.40 94.91 42.12 93.94 42.74 C 93.18 42.30 92.49 41.69 91.87 40.91 C 91.27 41.25 90.67 41.59 90.07 41.93 C 89.75 34.20 98.51 29.66 105.12 32.78 Z" fill="#198a4b" />
<path d="M 70.50 41.72 C 71.99 42.88 71.39 47.02 71.72 48.80 C 68.51 48.39 64.52 46.87 61.50 48.53 C 60.97 49.62 61.05 50.51 61.75 51.20 C 64.57 54.27 69.12 56.57 71.52 60.45 C 73.90 64.48 72.32 69.99 67.88 71.75 C 62.50 73.94 55.81 73.44 50.31 71.92 C 50.17 69.44 49.98 66.97 49.80 64.49 C 53.19 65.14 57.47 66.73 60.88 65.77 C 62.34 65.26 62.54 63.68 61.39 62.59 C 57.95 59.09 53.39 56.78 51.02 51.97 C 49.38 48.37 51.16 44.32 54.60 42.59 C 59.25 40.18 65.53 40.70 70.50 41.72 Z" fill="#198a4b" />
<path d="M 138.75 49.40 C 138.76 50.82 138.76 52.24 138.75 53.67 C 140.06 53.79 141.38 53.83 142.71 53.77 C 142.73 55.37 142.73 56.96 142.72 58.56 C 141.30 58.73 139.89 58.92 138.48 59.16 C 138.47 61.61 138.25 64.12 138.53 66.55 C 139.38 67.90 140.71 67.47 142.10 67.79 C 141.98 69.46 141.87 71.12 141.77 72.79 C 138.84 73.10 134.92 73.72 132.62 71.38 C 129.87 68.32 132.46 62.25 131.32 58.97 L 129.17 58.55 C 129.17 57.08 129.18 55.61 129.18 54.15 C 130.13 54.02 131.07 53.90 132.02 53.78 C 132.13 52.89 132.25 52.00 132.36 51.11 C 134.47 50.46 136.60 49.89 138.75 49.40 Z" fill="#198a4b" />
<path d="M 78.04 54.19 C 81.57 53.32 85.47 52.96 89.04 53.78 C 91.08 54.25 92.81 55.74 92.72 57.98 C 92.75 62.85 92.10 67.68 92.28 72.56 C 89.92 72.60 87.55 72.63 85.19 72.66 C 85.23 70.13 85.42 67.60 85.66 65.08 C 84.11 65.42 80.94 65.46 80.30 67.25 C 80.03 69.35 82.87 68.71 84.12 69.06 C 83.75 70.35 83.39 71.63 83.02 72.91 C 80.60 72.96 78.22 73.36 76.11 71.89 C 73.43 69.98 73.61 65.13 76.33 63.33 C 79.02 61.42 83.01 61.56 85.83 59.80 L 85.59 58.42 C 82.52 57.86 79.89 58.75 76.95 59.43 C 77.07 58.24 77.20 57.06 77.36 55.87 L 78.04 54.19 Z" fill="#198a4b" />
<path d="M 107.42 53.76 C 109.54 54.17 113.85 52.73 114.48 55.59 C 117.42 52.95 121.31 52.73 124.85 54.22 C 126.64 55.17 127.26 57.06 127.31 58.99 C 127.35 63.54 126.82 68.09 126.70 72.65 C 124.35 72.62 122.00 72.60 119.65 72.56 C 119.80 68.57 120.74 64.07 119.74 60.20 C 118.79 57.93 115.47 58.84 114.77 60.90 C 113.43 64.47 113.73 68.82 113.53 72.60 C 111.14 72.61 108.75 72.61 106.35 72.62 C 107.02 66.34 106.96 60.04 107.42 53.76 Z" fill="#198a4b" />
<path d="M 146.39 54.41 C 149.73 52.86 154.12 53.31 157.59 54.23 C 157.68 55.81 157.78 57.40 157.89 58.98 C 156.02 58.88 153.66 58.15 151.91 58.94 C 151.57 60.74 154.87 61.91 155.95 63.10 C 158.95 65.14 158.99 69.93 155.87 71.85 C 152.63 73.70 147.95 73.23 144.44 72.44 C 143.12 71.42 143.57 68.38 143.49 66.85 C 145.78 67.30 148.31 68.10 150.61 67.59 L 150.67 66.35 C 148.91 64.78 146.72 63.64 145.05 61.99 C 142.97 59.76 143.55 55.74 146.39 54.41 Z" fill="#198a4b" />
<path d="M 96.46 54.34 C 98.93 54.19 101.39 54.15 103.87 54.20 C 103.34 60.29 103.03 66.33 103.06 72.45 C 100.55 72.74 98.09 72.70 95.57 72.50 C 96.08 66.45 96.45 60.42 96.46 54.34 Z" fill="#198a4b" />
<path d="M 102.04 78.02 C 104.02 77.87 106.01 77.84 108.00 77.85 C 132.12 77.98 156.26 77.68 180.37 78.00 C 178.25 90.62 175.06 103.52 169.73 115.19 C 167.48 114.15 165.55 113.09 163.01 113.97 C 158.95 115.31 156.97 120.02 158.11 124.00 C 158.75 126.75 160.39 128.78 162.17 130.88 C 160.62 133.96 158.78 136.85 156.88 139.72 C 150.77 135.62 145.82 130.47 145.04 122.80 L 145.26 121.09 C 148.10 120.79 149.65 117.29 149.52 114.77 L 149.53 114.78 C 149.98 115.22 150.43 115.67 150.87 116.12 C 153.10 111.22 153.29 106.37 150.00 101.90 C 151.28 100.21 154.01 97.78 152.54 95.49 C 148.39 94.59 145.25 92.51 141.02 92.39 C 138.16 92.38 135.81 91.03 133.09 90.54 C 130.28 90.89 130.78 93.78 130.71 95.87 C 128.08 97.80 123.93 100.43 123.59 103.98 C 123.42 106.68 121.99 108.91 121.56 111.54 L 121.59 112.92 C 119.33 110.52 118.90 108.05 117.93 105.05 C 116.53 102.94 114.36 100.06 111.47 101.42 L 110.74 101.80 C 110.73 104.57 110.23 107.26 109.93 110.00 C 109.54 111.83 110.36 112.41 111.66 113.40 L 112.89 114.30 C 114.91 116.00 116.21 118.24 118.48 119.68 C 118.77 120.28 119.05 120.88 119.34 121.48 C 122.01 122.50 122.94 124.64 124.15 127.01 C 120.58 126.98 116.64 126.94 113.25 125.72 C 111.68 124.07 111.19 120.75 109.00 119.87 C 105.36 119.67 103.83 122.15 102.22 124.99 C 101.63 120.28 101.95 115.73 101.88 111.00 C 101.98 100.02 101.68 89.00 102.04 78.02 Z" fill="#11a0db" />
<path d="M 29.20 80.68 C 29.25 81.99 29.30 83.31 29.34 84.62 C 30.03 84.61 30.72 84.60 31.42 84.58 C 31.80 83.11 30.94 80.69 33.12 80.69 C 33.18 82.00 33.24 83.30 33.30 84.61 C 34.06 84.63 34.83 84.65 35.59 84.68 C 36.81 82.60 36.62 80.47 39.74 80.96 C 39.96 82.00 40.17 83.04 40.39 84.07 C 40.90 83.07 41.16 81.64 42.02 80.92 C 43.40 80.56 44.16 82.12 44.70 83.12 C 44.80 81.44 45.28 80.69 46.14 80.87 C 46.47 82.60 46.55 84.26 46.21 86.00 C 45.30 86.04 44.41 85.81 43.54 85.30 C 40.71 86.07 40.19 86.35 37.98 84.21 C 37.52 84.75 37.06 85.30 36.60 85.84 C 33.60 85.99 30.60 86.00 27.59 86.04 C 27.75 84.48 26.75 80.62 29.20 80.68 Z" fill="#daece2" />
<path d="M 46.57 80.93 C 47.82 80.90 49.07 80.89 50.31 80.89 C 49.94 81.52 49.57 82.15 49.19 82.79 C 49.74 83.18 50.29 83.58 50.84 83.98 C 51.33 82.98 51.81 81.98 52.28 80.97 C 54.75 81.08 54.70 80.57 55.39 83.23 C 56.45 80.87 57.08 80.44 59.49 81.65 C 62.67 80.16 66.95 81.14 70.39 80.96 C 70.09 81.70 69.48 82.24 68.55 82.57 C 68.70 82.92 68.85 83.27 68.99 83.62 C 68.43 84.41 67.60 86.73 66.32 85.86 C 65.97 84.65 66.47 82.45 65.19 81.84 C 64.58 83.77 65.60 85.88 63.04 86.26 C 62.98 84.79 62.92 83.31 62.86 81.84 C 60.79 82.46 61.44 84.43 61.11 86.14 C 57.69 84.30 55.85 87.64 53.00 84.30 C 52.54 84.83 52.09 85.38 51.66 85.94 C 50.09 86.01 48.53 86.06 46.97 85.98 C 46.61 85.16 47.10 84.65 48.43 84.46 C 47.53 83.36 46.66 82.44 46.57 80.93 Z" fill="#c1dfce" />
<path d="M 70.56 80.78 C 72.53 80.62 73.82 81.01 74.42 81.98 L 72.17 82.37 C 72.81 82.74 73.44 83.11 74.07 83.49 C 72.74 84.24 71.69 85.26 70.61 86.31 C 70.47 84.46 70.46 82.64 70.56 80.78 Z" fill="#edf6f1" />
<path d="M 74.54 80.83 C 76.03 80.91 77.52 80.98 79.01 81.05 C 78.76 82.34 78.54 83.63 78.34 84.93 C 79.79 83.80 80.76 79.98 82.91 80.99 C 83.64 82.23 84.14 83.64 84.69 84.98 C 84.79 83.56 84.90 82.15 85.02 80.75 C 87.33 80.47 85.98 84.73 86.25 86.12 C 84.26 85.89 83.20 86.07 81.86 84.37 C 81.22 84.87 80.56 85.35 79.89 85.81 C 77.92 86.24 76.62 84.88 74.63 86.03 C 74.61 84.30 74.56 82.56 74.54 80.83 Z" fill="#d6eadf" />
<path d="M 86.64 81.02 C 88.25 81.05 90.22 80.63 91.73 81.27 C 92.33 82.48 92.38 83.69 91.89 84.89 C 90.43 86.39 88.78 85.88 86.89 86.01 C 86.80 84.35 86.72 82.69 86.64 81.02 Z" fill="#d2e8dc" />
<path d="M 122.26 81.35 C 123.44 80.46 125.41 80.72 126.72 81.23 C 128.47 83.57 126.99 86.49 123.98 86.06 C 121.39 85.78 120.52 83.26 122.26 81.35 Z" fill="#caeaf6" />
<path d="M 130.97 80.76 C 129.88 82.65 131.54 84.09 130.78 85.75 C 129.88 85.89 128.98 86.03 128.08 86.15 C 128.26 85.44 128.43 84.73 128.60 84.03 C 128.30 83.30 128.00 82.58 127.69 81.86 C 128.37 81.04 129.46 80.68 130.97 80.76 Z" fill="#e1f3f9" />
<path d="M 131.66 80.66 C 132.43 81.10 133.05 81.73 133.55 82.54 C 134.70 80.23 135.43 80.31 136.56 82.59 C 136.77 82.12 136.98 81.65 137.19 81.19 C 138.77 81.33 142.78 80.02 143.37 81.97 L 141.47 82.29 C 141.54 82.99 141.62 83.69 141.70 84.38 C 142.24 84.91 142.81 85.41 143.39 85.87 C 141.96 85.93 140.52 85.97 139.08 85.99 C 138.97 84.88 138.86 83.78 138.75 82.67 C 138.20 83.66 137.84 84.99 137.00 85.76 C 135.32 85.58 133.86 85.59 132.19 85.80 C 131.62 84.10 131.69 82.42 131.66 80.66 Z" fill="#d9eff8" />
<path d="M 143.72 80.86 C 149.25 80.74 154.82 81.25 160.31 81.11 C 159.87 82.72 159.33 84.38 158.61 85.89 C 156.75 86.18 157.21 83.16 156.59 81.96 C 155.98 83.01 155.46 84.10 154.98 85.22 C 154.51 85.01 154.05 84.80 153.59 84.59 C 152.99 85.13 152.42 85.70 151.87 86.28 C 151.79 84.81 151.72 83.34 151.67 81.86 C 149.26 81.96 150.31 84.43 149.80 86.11 C 147.48 85.92 148.36 83.72 148.05 82.05 C 147.14 82.08 146.22 82.13 145.31 82.19 C 145.87 82.81 146.41 83.45 146.93 84.10 C 147.17 86.39 145.68 85.64 144.14 86.18 C 144.58 84.54 144.15 83.57 143.61 82.01 L 143.72 80.86 Z" fill="#d9f0f8" />
<path d="M 38.25 82.25 C 38.77 82.78 38.77 82.78 38.25 82.25 Z" fill="#91c7a9" />
<path d="M 76.26 82.28 L 76.79 82.28 L 76.79 82.81 L 76.26 82.80 L 76.26 82.28 Z" fill="#6db58d" />
<path d="M 89.25 82.20 C 90.76 81.73 90.67 85.01 89.25 84.61 C 88.68 83.81 88.68 83.00 89.25 82.20 Z" fill="#48a26f" />
<path d="M 123.33 82.34 C 124.95 81.19 126.94 82.79 125.49 84.47 C 124.05 85.87 122.16 83.74 123.33 82.34 Z" fill="#52bae5" />
<path d="M 153.30 82.28 L 153.82 82.28 L 153.82 82.79 L 153.30 82.79 L 153.30 82.28 Z" fill="#71c6e9" />
<path d="M 133.09 90.54 C 135.81 91.03 138.16 92.38 141.02 92.39 C 145.25 92.51 148.39 94.59 152.54 95.49 C 154.01 97.78 151.28 100.21 150.00 101.90 C 153.29 106.37 153.10 111.22 150.87 116.12 C 150.43 115.67 149.98 115.22 149.53 114.78 L 149.52 114.77 C 149.65 117.29 148.10 120.79 145.26 121.09 C 142.81 121.16 142.81 123.00 141.73 124.73 C 141.13 124.40 140.53 124.07 139.93 123.74 C 138.83 125.37 137.68 126.71 136.24 128.05 C 135.78 127.32 135.31 126.59 134.85 125.86 C 133.86 126.72 132.84 127.55 131.85 128.41 C 131.12 126.66 130.47 124.88 129.87 123.08 C 129.23 123.35 128.59 123.61 127.95 123.88 C 127.13 121.64 126.55 119.33 126.00 117.01 C 125.40 117.26 124.80 117.52 124.20 117.78 C 123.53 115.93 123.59 112.37 121.56 111.54 C 121.99 108.91 123.42 106.68 123.59 103.98 C 123.93 100.43 128.08 97.80 130.71 95.87 C 130.78 93.78 130.28 90.89 133.09 90.54 Z" fill="#ffc220" />
<path d="M 59.13 91.04 C 61.03 91.71 62.83 92.43 64.26 93.93 C 62.88 93.54 61.51 93.25 60.09 93.03 C 60.23 94.24 60.42 95.43 60.66 96.62 C 59.79 95.87 58.91 95.14 57.98 94.47 C 55.51 96.08 58.05 97.34 58.93 98.98 L 59.35 100.15 C 57.87 99.19 56.45 98.15 55.05 97.07 C 55.26 96.43 55.48 95.78 55.71 95.14 C 55.45 94.13 55.20 93.12 54.95 92.11 C 55.95 92.35 56.96 92.60 57.97 92.85 C 58.35 92.24 58.73 91.64 59.13 91.04 Z" fill="#87231e" />
<path d="M 60.09 93.03 C 61.51 93.25 62.88 93.54 64.26 93.93 C 64.88 94.57 65.48 95.22 66.06 95.90 C 70.18 95.91 74.19 94.43 77.57 97.37 C 79.29 97.70 81.02 97.96 82.75 98.27 C 84.20 98.93 85.33 99.65 86.31 100.92 C 84.45 101.11 82.58 101.29 80.71 101.43 C 80.93 101.64 81.15 101.82 81.40 101.99 L 81.71 102.95 C 80.89 103.61 80.07 104.26 79.25 104.90 C 77.14 103.58 75.07 102.28 72.71 101.44 L 72.54 101.45 C 71.99 102.30 71.46 103.16 70.96 104.03 L 70.57 104.79 C 70.37 105.40 70.19 106.01 70.01 106.62 C 73.00 107.38 75.94 108.32 78.87 109.27 C 79.02 110.60 79.14 111.92 79.25 113.25 L 78.89 114.23 L 78.33 114.05 L 77.85 113.13 C 77.56 112.37 77.28 111.60 77.01 110.84 C 76.43 111.15 75.85 111.46 75.27 111.77 C 73.87 110.37 73.30 108.78 71.01 108.97 C 71.84 111.03 72.07 113.83 73.71 115.39 L 74.15 115.92 C 73.54 117.49 73.86 118.47 75.09 118.88 L 76.23 119.71 C 75.62 123.49 78.64 124.34 78.06 128.03 C 75.74 127.93 73.43 127.85 71.11 127.74 C 71.26 125.86 71.37 125.07 73.20 124.21 C 72.31 123.99 71.41 123.76 70.52 123.53 C 70.09 121.08 69.46 118.86 68.48 116.57 C 69.40 116.18 70.30 115.74 71.23 115.36 C 68.75 114.78 67.97 114.87 67.03 112.40 C 68.05 112.19 69.07 111.97 70.09 111.76 C 68.95 109.46 68.15 108.35 65.79 107.18 C 65.01 107.38 64.22 107.58 63.43 107.77 C 63.48 104.80 64.32 101.95 64.24 98.97 C 62.47 98.96 60.70 98.95 58.93 98.98 C 58.05 97.34 55.51 96.08 57.98 94.47 C 58.91 95.14 59.79 95.87 60.66 96.62 C 60.42 95.43 60.23 94.24 60.09 93.03 Z" fill="#ec1c24" />
<path d="M 23.39 95.30 C 30.32 97.99 38.14 102.37 44.03 106.94 C 48.17 110.08 48.71 114.67 48.71 119.53 C 47.98 118.62 47.23 117.73 46.48 116.83 C 47.74 113.50 45.89 109.81 43.01 108.01 C 37.41 104.24 31.65 100.59 25.71 97.39 C 24.69 96.85 24.07 97.01 23.86 97.88 C 23.68 97.02 23.52 96.16 23.39 95.30 Z" fill="#9a221f" />
<path d="M 134.01 96.02 C 135.96 97.22 137.53 98.76 139.73 99.52 C 138.73 99.95 137.74 100.40 136.76 100.87 C 135.70 100.70 135.15 101.02 135.12 101.83 L 134.54 101.44 C 133.93 100.27 131.50 96.35 134.01 96.02 Z" fill="#fcde8a" />
<path d="M 25.71 97.39 C 31.65 100.59 37.41 104.24 43.01 108.01 C 45.89 109.81 47.74 113.50 46.48 116.83 C 47.23 117.73 47.98 118.62 48.71 119.53 C 50.21 123.01 51.25 124.03 54.79 125.44 C 55.26 125.95 55.72 126.46 56.18 126.98 C 54.20 127.71 52.05 128.24 50.20 129.26 C 49.87 131.68 53.10 135.75 51.65 138.48 C 49.53 139.82 49.81 141.69 49.40 143.85 C 48.28 143.97 47.16 144.09 46.05 144.21 C 40.68 136.21 35.82 127.93 31.87 119.14 C 35.57 118.82 38.44 118.95 42.03 119.86 C 44.31 120.20 42.14 117.98 41.50 117.49 C 41.59 117.08 41.68 116.67 41.78 116.26 C 40.47 115.59 39.17 114.93 37.86 114.28 C 39.22 114.35 40.57 114.41 41.93 114.43 C 40.65 112.68 38.69 111.68 36.90 110.39 L 39.25 109.63 C 35.10 107.26 30.39 105.89 25.98 104.08 C 25.33 101.99 24.51 99.97 23.86 97.88 C 24.07 97.01 24.69 96.85 25.71 97.39 Z" fill="#eb1c24" />
<path d="M 82.75 98.27 C 85.91 98.69 87.85 99.65 90.17 101.80 C 87.26 102.07 84.33 102.16 81.40 101.99 C 81.15 101.82 80.93 101.64 80.71 101.43 C 82.58 101.29 84.45 101.11 86.31 100.92 C 85.33 99.65 84.20 98.93 82.75 98.27 Z" fill="#892821" />
<path d="M 132.03 98.00 C 132.61 100.27 128.92 101.76 128.59 103.93 C 128.10 105.38 128.79 107.13 129.97 108.03 C 131.61 107.50 130.27 105.05 132.74 104.98 C 132.47 105.70 132.19 106.42 131.92 107.13 C 132.37 107.66 132.84 108.17 133.32 108.67 C 136.12 108.94 137.72 109.19 140.11 110.72 C 142.61 111.55 142.74 109.74 143.59 107.98 C 143.87 108.70 144.94 109.31 144.26 110.06 C 141.14 113.00 139.26 115.58 137.33 119.41 C 137.33 116.36 137.06 113.34 136.68 110.32 L 135.23 110.33 L 134.37 110.34 C 133.70 111.09 133.98 111.63 135.22 111.94 C 134.46 113.74 133.09 115.19 132.34 116.97 C 133.06 120.08 134.85 119.22 137.33 119.41 C 135.64 120.19 134.06 119.92 132.29 119.73 C 131.80 117.17 131.93 114.62 131.90 112.03 C 130.37 109.81 127.79 108.97 127.06 105.98 C 127.39 102.40 129.22 100.06 132.03 98.00 Z" fill="#ffdd82" />
<path d="M 58.93 98.98 C 60.70 98.95 62.47 98.96 64.24 98.97 C 64.32 101.95 63.48 104.80 63.43 107.77 C 64.22 107.58 65.01 107.38 65.79 107.18 C 68.15 108.35 68.95 109.46 70.09 111.76 C 69.07 111.97 68.05 112.19 67.03 112.40 C 67.97 114.87 68.75 114.78 71.23 115.36 C 70.30 115.74 69.40 116.18 68.48 116.57 C 69.46 118.86 70.09 121.08 70.52 123.53 C 71.41 123.76 72.31 123.99 73.20 124.21 C 71.37 125.07 71.26 125.86 71.11 127.74 C 73.43 127.85 75.74 127.93 78.06 128.03 L 78.92 128.09 L 79.28 128.70 C 76.68 128.99 74.09 129.19 71.47 129.31 C 72.06 132.62 71.35 135.68 70.84 138.95 C 69.94 138.20 69.04 137.45 68.13 136.71 C 68.36 136.11 68.58 135.51 68.81 134.91 C 65.78 130.92 62.94 127.43 57.39 127.86 C 57.92 130.30 59.10 133.99 57.39 136.14 C 56.33 133.66 56.61 129.06 52.96 129.01 C 53.90 133.24 54.48 137.62 54.40 141.95 C 53.71 140.97 53.10 141.00 52.59 142.04 C 52.12 141.68 51.63 141.33 51.15 140.98 C 51.04 142.32 50.94 143.67 50.85 145.02 L 48.89 145.15 C 47.93 144.87 46.98 144.55 46.05 144.21 C 47.16 144.09 48.28 143.97 49.40 143.85 C 49.81 141.69 49.53 139.82 51.65 138.48 C 53.10 135.75 49.87 131.68 50.20 129.26 C 52.05 128.24 54.20 127.71 56.18 126.98 C 55.72 126.46 55.26 125.95 54.79 125.44 C 56.25 125.29 59.02 126.22 59.20 124.00 L 59.29 122.13 L 59.64 122.27 C 59.89 123.10 60.13 123.93 60.36 124.76 C 61.12 125.12 61.88 125.47 62.64 125.83 C 62.89 122.95 63.37 120.11 63.57 117.23 C 63.80 114.90 65.34 112.79 64.46 110.45 C 62.76 108.83 61.33 108.01 61.28 105.43 C 61.02 103.53 62.66 99.86 59.35 100.15 L 58.93 98.98 Z" fill="#c3161d" />
<path d="M 141.29 99.48 L 141.30 99.47 C 142.86 101.95 144.81 101.52 147.39 102.07 C 146.55 103.35 145.41 103.65 144.04 104.06 C 143.91 102.92 143.29 102.58 142.19 103.03 L 141.10 101.82 C 140.90 103.99 141.22 105.94 141.68 108.04 C 140.33 109.25 136.64 107.59 134.98 107.04 C 132.55 105.80 135.87 104.37 136.90 103.64 C 136.55 103.19 136.19 102.74 135.83 102.29 L 136.72 101.84 C 137.45 101.63 138.19 101.42 138.93 101.22 C 138.37 102.75 137.71 104.24 137.12 105.75 C 137.72 106.15 138.31 106.54 138.91 106.94 C 140.31 104.59 140.06 101.89 141.29 99.48 Z" fill="#ffde89" />
<path d="M 59.35 100.15 C 62.66 99.86 61.02 103.53 61.28 105.43 C 61.33 108.01 62.76 108.83 64.46 110.45 C 65.34 112.79 63.80 114.90 63.57 117.23 C 63.37 120.11 62.89 122.95 62.64 125.83 C 61.88 125.47 61.12 125.12 60.36 124.76 C 60.13 123.93 59.89 123.10 59.64 122.27 L 59.29 122.13 L 58.08 121.68 C 57.42 121.04 56.70 120.51 55.92 120.09 C 56.61 119.76 57.31 119.43 58.00 119.11 L 59.83 118.51 C 59.81 117.54 59.79 116.57 59.76 115.60 C 58.62 115.25 57.50 114.82 56.41 114.31 C 58.38 112.40 58.93 112.39 58.61 109.49 C 57.36 109.19 56.10 108.90 54.83 108.63 C 55.69 107.51 58.85 105.90 57.92 104.28 L 55.86 103.81 L 54.95 103.57 C 56.39 102.40 57.83 101.22 59.35 100.15 Z" fill="#ed1c24" />
<path d="M 72.54 101.45 L 72.71 101.44 C 75.07 102.28 77.14 103.58 79.25 104.90 C 80.07 104.26 80.89 103.61 81.71 102.95 L 81.98 105.10 C 83.54 105.38 85.41 105.88 86.67 104.60 C 88.81 102.45 91.39 102.67 94.17 102.18 C 92.14 103.42 88.29 103.39 87.51 105.80 C 83.63 106.22 79.98 106.31 76.36 104.62 C 74.89 104.21 72.19 103.00 73.19 105.80 C 78.35 108.69 83.36 108.07 88.93 107.31 C 89.48 107.87 89.96 108.50 90.38 109.21 L 89.40 109.97 L 88.54 108.27 C 85.76 108.14 82.95 108.60 80.18 108.77 C 79.93 110.29 79.73 111.79 79.25 113.25 C 79.14 111.92 79.02 110.60 78.87 109.27 C 75.94 108.32 73.00 107.38 70.01 106.62 C 70.19 106.01 70.37 105.40 70.57 104.79 C 71.63 107.15 73.20 104.38 70.96 104.03 C 71.46 103.16 71.99 102.30 72.54 101.45 Z" fill="#583926" />
<path d="M 95.99 102.36 L 95.05 102.00 C 95.26 99.92 98.00 100.99 95.99 102.36 Z" fill="#533221" />
<path d="M 111.47 101.42 C 114.36 100.06 116.53 102.94 117.93 105.05 C 118.90 108.05 119.33 110.52 121.59 112.92 C 122.77 115.54 122.45 119.48 125.57 120.49 C 126.17 122.80 126.93 124.75 128.12 126.82 C 128.64 126.65 129.16 126.48 129.69 126.31 C 130.29 128.22 130.82 130.14 131.30 132.09 C 132.35 130.85 133.31 129.55 134.35 128.31 L 135.24 130.06 C 136.71 129.47 137.92 128.14 139.12 127.13 C 139.68 127.34 140.24 127.56 140.80 127.78 C 142.00 125.91 143.45 124.34 145.04 122.80 C 145.82 130.47 150.77 135.62 156.88 139.72 C 154.84 143.01 152.62 146.15 150.30 149.25 C 147.95 145.35 144.10 145.02 140.02 144.16 L 139.38 145.06 C 140.64 146.13 142.65 146.09 144.03 146.99 C 145.87 148.11 147.76 149.12 149.68 150.11 C 148.66 151.45 147.57 152.73 146.51 154.05 C 144.61 153.88 143.11 154.05 141.32 154.68 C 141.67 156.18 142.01 157.67 142.34 159.17 C 141.02 160.65 139.68 162.12 138.32 163.56 C 134.82 165.11 132.35 162.87 129.00 162.03 C 126.14 161.00 123.37 160.97 120.40 161.45 C 119.83 159.28 121.07 156.93 118.01 156.84 L 118.20 154.97 C 120.02 153.40 120.51 153.01 122.99 153.32 C 121.84 152.32 120.57 151.57 119.20 150.90 C 121.01 149.40 122.33 149.21 124.08 150.89 C 127.25 154.19 129.90 157.35 134.78 157.92 C 133.74 156.09 132.67 154.40 130.97 153.11 C 129.12 151.58 126.94 149.58 127.52 146.92 C 130.85 143.68 134.82 144.42 139.02 144.55 C 136.46 143.11 133.65 142.92 133.24 139.39 C 134.42 139.36 135.60 139.32 136.78 139.28 C 134.66 138.37 133.05 139.32 130.94 139.80 C 129.25 138.09 127.68 136.44 125.37 135.58 C 121.18 133.96 116.46 133.97 112.12 132.71 C 108.82 131.89 106.34 130.11 103.38 128.54 C 103.35 127.68 103.31 126.81 103.25 125.95 L 102.23 125.07 L 102.22 124.99 C 103.83 122.15 105.36 119.67 109.00 119.87 C 111.19 120.75 111.68 124.07 113.25 125.72 C 116.64 126.94 120.58 126.98 124.15 127.01 C 122.94 124.64 122.01 122.50 119.34 121.48 C 119.05 120.88 118.77 120.28 118.48 119.68 C 116.21 118.24 114.91 116.00 112.89 114.30 C 113.86 114.26 114.84 114.07 115.82 113.73 C 114.77 112.12 112.75 111.24 111.66 113.40 C 110.36 112.41 109.54 111.83 109.93 110.00 C 110.23 107.26 110.73 104.57 110.74 101.80 L 111.47 101.42 Z" fill="#ffc220" />
<path d="M 136.76 100.87 L 136.72 101.84 L 135.83 102.29 L 135.12 101.83 C 135.15 101.02 135.70 100.70 136.76 100.87 Z" fill="#beb6a3" />
<path d="M 94.17 102.18 L 95.05 102.00 L 95.99 102.36 C 95.26 103.57 94.61 104.82 94.03 106.10 C 92.30 106.20 91.60 107.44 90.98 108.87 L 90.38 109.21 C 89.96 108.50 89.48 107.87 88.93 107.31 C 83.36 108.07 78.35 108.69 73.19 105.80 C 72.19 103.00 74.89 104.21 76.36 104.62 C 79.98 106.31 83.63 106.22 87.51 105.80 C 88.29 103.39 92.14 103.42 94.17 102.18 Z" fill="#ed1c24" />
<path d="M 142.19 103.03 C 143.29 102.58 143.91 102.92 144.04 104.06 C 143.21 104.48 142.59 104.14 142.19 103.03 Z" fill="#807e6c" />
<path d="M 148.57 102.76 C 149.11 105.53 150.52 108.10 148.74 110.69 C 147.43 113.47 144.57 115.66 141.69 113.36 C 143.85 112.72 145.89 113.35 146.98 110.99 C 148.90 108.39 146.90 105.14 148.57 102.76 Z" fill="#ffdb7a" />
<path d="M 25.98 104.08 C 30.39 105.89 35.10 107.26 39.25 109.63 L 36.90 110.39 C 38.69 111.68 40.65 112.68 41.93 114.43 C 40.57 114.41 39.22 114.35 37.86 114.28 C 39.17 114.93 40.47 115.59 41.78 116.26 C 41.68 116.67 41.59 117.08 41.50 117.49 C 42.14 117.98 44.31 120.20 42.03 119.86 C 38.44 118.95 35.57 118.82 31.87 119.14 C 31.56 118.45 31.25 117.76 30.94 117.07 C 33.68 117.03 36.42 116.91 39.15 116.66 C 36.51 115.01 33.60 114.10 30.56 113.55 L 29.57 113.81 C 29.21 112.92 28.85 112.02 28.50 111.13 C 31.07 111.64 33.62 112.06 36.26 111.93 C 33.84 109.35 30.25 107.80 26.89 106.86 C 26.57 105.94 26.27 105.01 25.98 104.08 Z" fill="#bf171d" />
<path d="M 54.95 103.57 L 55.86 103.81 C 55.75 106.08 52.87 104.90 54.95 103.57 Z" fill="#542a1d" />
<path d="M 70.96 104.03 C 73.20 104.38 71.63 107.15 70.57 104.79 L 70.96 104.03 Z" fill="#188146" />
<path d="M 113.13 105.13 C 114.38 104.34 115.92 106.93 114.09 107.03 C 113.08 106.63 112.75 106.00 113.13 105.13 Z" fill="#ffd871" />
<path d="M 94.03 106.10 C 93.84 108.38 93.33 109.00 90.98 108.87 C 91.60 107.44 92.30 106.20 94.03 106.10 Z" fill="#2f5a33" />
<path d="M 26.89 106.86 C 30.25 107.80 33.84 109.35 36.26 111.93 C 33.62 112.06 31.07 111.64 28.50 111.13 C 27.94 109.72 27.39 108.30 26.89 106.86 Z" fill="#e21f24" />
<path d="M 112.13 108.43 C 113.07 107.91 114.86 108.85 114.90 109.96 C 113.77 110.54 111.53 110.05 112.13 108.43 Z" fill="#ffe49b" />
<path d="M 54.83 108.63 C 56.10 108.90 57.36 109.19 58.61 109.49 C 58.93 112.39 58.38 112.40 56.41 114.31 C 57.50 114.82 58.62 115.25 59.76 115.60 C 59.79 116.57 59.81 117.54 59.83 118.51 L 58.00 119.11 C 58.52 118.36 59.03 117.60 59.54 116.84 C 57.74 115.44 56.09 116.30 54.04 116.43 C 54.86 114.10 56.69 112.85 58.19 111.00 C 57.88 109.23 54.58 110.53 53.30 110.55 C 53.79 109.89 54.30 109.25 54.83 108.63 Z" fill="#812921" />
<path d="M 71.01 108.97 C 73.30 108.78 73.87 110.37 75.27 111.77 C 75.85 111.46 76.43 111.15 77.01 110.84 C 77.28 111.60 77.56 112.37 77.85 113.13 C 76.22 112.73 74.58 112.40 72.93 112.09 C 73.18 113.19 73.44 114.29 73.71 115.39 C 72.07 113.83 71.84 111.03 71.01 108.97 Z" fill="#524028" />
<path d="M 134.37 110.34 L 135.23 110.33 L 135.22 111.94 C 133.98 111.63 133.70 111.09 134.37 110.34 Z" fill="#ffc836" />
<path d="M 135.23 110.33 L 136.68 110.32 C 137.06 113.34 137.33 116.36 137.33 119.41 C 134.85 119.22 133.06 120.08 132.34 116.97 C 133.09 115.19 134.46 113.74 135.22 111.94 L 135.23 110.33 Z" fill="#ed1d25" />
<path d="M 92.63 110.81 C 92.68 113.75 92.71 116.69 93.01 119.62 L 93.08 121.33 C 94.89 120.72 95.86 115.84 97.48 119.26 L 96.89 120.89 C 95.83 121.60 95.58 122.70 96.15 124.17 L 95.95 125.98 C 94.54 126.94 94.38 127.96 95.62 129.18 C 96.24 130.15 96.83 131.14 97.38 132.15 C 96.95 133.19 96.54 134.23 96.15 135.28 C 95.70 133.54 95.22 132.00 93.97 130.66 L 93.38 130.15 L 93.28 130.60 C 92.17 134.79 90.08 138.35 87.92 142.05 C 85.98 142.12 85.21 143.19 85.08 145.04 C 83.93 146.38 82.79 147.72 81.70 149.12 C 80.99 150.06 80.43 151.11 80.08 152.23 C 79.72 151.50 79.38 150.76 79.05 150.01 C 78.96 149.05 78.88 148.08 78.81 147.12 C 76.95 147.09 75.18 146.91 73.37 146.49 C 72.12 148.07 71.34 148.78 69.23 148.75 C 68.95 147.08 71.41 146.16 72.32 144.99 C 70.88 145.22 69.44 145.46 68.00 145.73 C 68.44 143.88 69.94 143.16 71.21 141.87 C 70.00 142.04 68.80 142.19 67.60 142.35 C 66.88 141.78 66.28 141.45 65.39 141.26 C 65.16 139.79 64.97 138.32 64.82 136.84 C 64.37 137.35 63.96 137.91 63.59 138.49 C 62.69 137.57 61.81 135.32 60.23 136.13 C 59.72 138.10 59.37 140.12 58.95 142.11 C 60.59 143.51 62.24 144.88 63.93 146.22 C 63.38 147.43 62.81 148.63 62.32 149.87 C 61.41 148.98 60.39 148.38 59.26 147.82 C 56.78 146.18 53.82 145.89 50.85 145.02 C 50.94 143.67 51.04 142.32 51.15 140.98 C 51.63 141.33 52.12 141.68 52.59 142.04 C 53.56 142.98 54.16 142.95 54.40 141.95 C 54.48 137.62 53.90 133.24 52.96 129.01 C 56.61 129.06 56.33 133.66 57.39 136.14 C 59.10 133.99 57.92 130.30 57.39 127.86 C 62.94 127.43 65.78 130.92 68.81 134.91 C 68.58 135.51 68.36 136.11 68.13 136.71 C 69.04 137.45 69.94 138.20 70.84 138.95 C 71.35 135.68 72.06 132.62 71.47 129.31 C 74.09 129.19 76.68 128.99 79.28 128.70 C 79.14 130.63 79.21 132.22 79.83 134.05 C 79.69 134.92 79.57 135.78 79.48 136.65 C 80.63 137.72 81.90 135.70 82.78 135.05 L 84.14 133.77 C 85.76 134.29 87.36 134.89 88.95 135.51 C 88.19 134.56 87.41 133.64 86.42 132.92 C 88.08 131.50 89.06 132.07 90.96 132.44 C 89.81 131.04 88.84 130.05 88.87 128.09 C 89.43 126.39 89.99 124.69 90.53 122.98 L 89.09 122.10 C 88.36 121.09 87.63 120.07 86.90 119.07 C 87.55 118.66 88.21 118.27 88.88 117.90 L 89.60 119.18 C 91.93 116.00 88.74 112.53 92.63 110.81 Z" fill="#ed1c24" />
<path d="M 115.82 113.73 C 114.84 114.07 113.86 114.26 112.89 114.30 L 111.66 113.40 C 112.75 111.24 114.77 112.12 115.82 113.73 Z" fill="#fcd76f" />
<path d="M 121.56 111.54 C 123.59 112.37 123.53 115.93 124.20 117.78 C 124.80 117.52 125.40 117.26 126.00 117.01 C 126.55 119.33 127.13 121.64 127.95 123.88 C 128.59 123.61 129.23 123.35 129.87 123.08 C 130.47 124.88 131.12 126.66 131.85 128.41 C 132.84 127.55 133.86 126.72 134.85 125.86 C 135.31 126.59 135.78 127.32 136.24 128.05 C 137.68 126.71 138.83 125.37 139.93 123.74 C 140.53 124.07 141.13 124.40 141.73 124.73 C 142.81 123.00 142.81 121.16 145.26 121.09 L 145.04 122.80 C 143.45 124.34 142.00 125.91 140.80 127.78 C 140.24 127.56 139.68 127.34 139.12 127.13 C 137.92 128.14 136.71 129.47 135.24 130.06 L 134.35 128.31 C 133.31 129.55 132.35 130.85 131.30 132.09 C 130.82 130.14 130.29 128.22 129.69 126.31 C 129.16 126.48 128.64 126.65 128.12 126.82 C 126.93 124.75 126.17 122.80 125.57 120.49 C 122.45 119.48 122.77 115.54 121.59 112.92 L 121.56 111.54 Z" fill="#ffe39a" />
<path d="M 30.56 113.55 C 33.60 114.10 36.51 115.01 39.15 116.66 C 36.42 116.91 33.68 117.03 30.94 117.07 C 30.47 115.99 30.02 114.90 29.57 113.81 L 30.56 113.55 Z" fill="#e71d23" />
<path d="M 87.64 113.29 L 87.64 113.87 L 87.05 113.73 L 87.64 113.29 Z" fill="#4b0d0d" />
<path d="M 100.00 113.00 L 99.99 113.66 C 99.40 114.19 98.81 114.70 98.22 115.22 C 97.99 116.58 97.80 117.91 97.48 119.26 C 95.86 115.84 94.89 120.72 93.08 121.33 L 93.01 119.62 C 94.73 118.47 94.98 116.79 95.74 115.02 C 97.01 116.28 97.41 115.93 96.94 113.98 C 97.96 113.66 98.98 113.33 100.00 113.00 Z" fill="#593423" />
<path d="M 78.33 114.05 L 78.89 114.23 L 78.34 114.66 L 78.33 114.05 Z" fill="#551e17" />
<path d="M 87.05 113.73 L 87.64 113.87 C 87.89 114.84 88.10 115.82 88.28 116.80 C 87.56 117.39 86.80 117.74 85.99 117.87 C 85.61 116.36 85.93 114.84 87.05 113.73 Z" fill="#a41c1d" />
<path d="M 96.94 113.98 C 97.41 115.93 97.01 116.28 95.74 115.02 L 96.94 113.98 Z" fill="#c01c1f" />
<path d="M 163.01 113.97 C 165.55 113.09 167.48 114.15 169.73 115.19 C 169.42 116.04 169.11 116.89 168.80 117.73 C 166.45 117.66 163.81 116.66 161.97 118.58 C 160.48 122.03 161.71 124.82 163.97 127.51 C 163.37 128.63 162.77 129.76 162.17 130.88 C 160.39 128.78 158.75 126.75 158.11 124.00 C 156.97 120.02 158.95 115.31 163.01 113.97 Z" fill="#ffc220" />
<path d="M 74.15 115.92 C 75.29 116.80 75.61 117.78 75.09 118.88 C 73.86 118.47 73.54 117.49 74.15 115.92 Z" fill="#7e211c" />
<path d="M 88.28 116.80 L 88.88 117.90 C 88.21 118.27 87.55 118.66 86.90 119.07 C 87.63 120.07 88.36 121.09 89.09 122.10 C 86.50 120.90 86.41 120.75 85.99 117.87 C 86.80 117.74 87.56 117.39 88.28 116.80 Z" fill="#453e27" />
<path d="M 168.80 117.73 C 168.11 119.52 167.26 121.22 166.40 122.93 C 166.50 119.43 165.20 118.82 161.97 118.58 C 163.81 116.66 166.45 117.66 168.80 117.73 Z" fill="#bec16d" />
<path d="M 161.97 118.58 C 165.20 118.82 166.50 119.43 166.40 122.93 C 165.62 124.47 164.79 125.99 163.97 127.51 C 161.71 124.82 160.48 122.03 161.97 118.58 Z" fill="#11a0db" />
<path d="M 55.92 120.09 C 56.70 120.51 57.42 121.04 58.08 121.68 C 56.46 122.82 53.39 121.64 55.92 120.09 Z" fill="#27532f" />
<path d="M 76.23 119.71 C 77.60 122.51 79.19 124.81 78.92 128.09 L 78.06 128.03 C 78.64 124.34 75.62 123.49 76.23 119.71 Z" fill="#733023" />
<path d="M 96.89 120.89 C 97.42 122.38 97.18 123.48 96.15 124.17 C 95.58 122.70 95.83 121.60 96.89 120.89 Z" fill="#752920" />
<path d="M 95.95 125.98 C 96.29 127.23 96.18 128.29 95.62 129.18 C 94.38 127.96 94.54 126.94 95.95 125.98 Z" fill="#663022" />
<path d="M 102.23 125.07 L 103.25 125.95 C 103.31 126.81 103.35 127.68 103.38 128.54 C 106.34 130.11 108.82 131.89 112.12 132.71 C 116.46 133.97 121.18 133.96 125.37 135.58 C 127.68 136.44 129.25 138.09 130.94 139.80 C 133.05 139.32 134.66 138.37 136.78 139.28 C 135.60 139.32 134.42 139.36 133.24 139.39 C 133.65 142.92 136.46 143.11 139.02 144.55 C 134.82 144.42 130.85 143.68 127.52 146.92 C 126.94 149.58 129.12 151.58 130.97 153.11 C 132.67 154.40 133.74 156.09 134.78 157.92 C 129.90 157.35 127.25 154.19 124.08 150.89 C 122.33 149.21 121.01 149.40 119.20 150.90 C 118.43 152.19 118.33 153.49 118.20 154.97 L 118.01 156.84 C 121.07 156.93 119.83 159.28 120.40 161.45 C 123.37 160.97 126.14 161.00 129.00 162.03 C 132.35 162.87 134.82 165.11 138.32 163.56 C 127.64 175.45 115.02 185.73 101.95 194.89 C 101.78 173.93 101.96 152.96 101.86 132.00 C 101.83 129.68 102.02 127.38 102.23 125.07 Z" fill="#11a0db" />
<path d="M 88.87 128.09 C 88.84 130.05 89.81 131.04 90.96 132.44 C 89.06 132.07 88.08 131.50 86.42 132.92 C 87.41 133.64 88.19 134.56 88.95 135.51 C 87.36 134.89 85.76 134.29 84.14 133.77 C 86.29 132.04 88.10 130.95 88.87 128.09 Z" fill="#8d2520" />
<path d="M 79.28 128.70 C 80.12 130.74 80.38 132.79 80.98 134.91 L 82.78 135.05 C 81.90 135.70 80.63 137.72 79.48 136.65 C 79.57 135.78 79.69 134.92 79.83 134.05 C 79.21 132.22 79.14 130.63 79.28 128.70 Z" fill="#593d28" />
<path d="M 93.38 130.15 L 93.97 130.66 L 93.28 130.60 L 93.38 130.15 Z" fill="#2a3f24" />
<path d="M 97.38 132.15 C 98.23 133.18 98.76 136.45 97.09 136.82 C 96.58 136.55 96.27 136.04 96.15 135.28 C 96.54 134.23 96.95 133.19 97.38 132.15 Z" fill="#642f22" />
<path d="M 73.09 134.24 C 74.54 133.65 75.78 133.65 76.80 134.25 C 77.02 135.62 73.36 135.49 73.09 134.24 Z" fill="#b7151b" />
<path d="M 60.23 136.13 C 61.81 135.32 62.69 137.57 63.59 138.49 C 63.96 137.91 64.37 137.35 64.82 136.84 C 64.97 138.32 65.16 139.79 65.39 141.26 C 66.28 141.45 66.88 141.78 67.60 142.35 C 68.80 142.19 70.00 142.04 71.21 141.87 C 69.94 143.16 68.44 143.88 68.00 145.73 C 69.44 145.46 70.88 145.22 72.32 144.99 C 71.41 146.16 68.95 147.08 69.23 148.75 C 71.34 148.78 72.12 148.07 73.37 146.49 C 75.18 146.91 76.95 147.09 78.81 147.12 C 78.88 148.08 78.96 149.05 79.05 150.01 C 78.70 149.23 78.35 148.46 78.00 147.68 C 76.60 147.58 75.20 147.55 73.82 147.60 C 74.43 150.43 75.11 153.18 76.21 155.87 C 75.06 155.97 73.91 156.07 72.76 156.19 C 73.56 155.52 74.27 154.81 74.88 154.06 C 74.36 152.48 73.51 150.98 72.76 149.50 C 71.84 149.77 70.92 150.04 70.00 150.28 C 69.03 149.96 68.06 149.63 67.09 149.31 L 66.88 149.94 C 66.10 148.89 65.39 148.24 64.15 147.74 C 63.85 149.81 64.04 150.88 62.19 152.11 L 62.32 149.87 C 62.81 148.63 63.38 147.43 63.93 146.22 C 62.24 144.88 60.59 143.51 58.95 142.11 C 59.37 140.12 59.72 138.10 60.23 136.13 Z" fill="#b9151c" />
<path d="M 84.24 137.24 C 85.07 136.54 85.89 136.50 86.70 137.10 C 87.42 139.21 83.01 139.95 84.24 137.24 Z" fill="#b9151b" />
<path d="M 45.18 139.24 L 45.94 139.25 L 46.24 140.04 L 45.80 140.81 L 45.04 140.80 L 44.74 140.01 L 45.18 139.24 Z" fill="#720e11" />
<path d="M 77.69 140.23 C 77.79 141.68 73.98 141.12 73.16 140.69 C 73.91 139.36 76.56 139.53 77.69 140.23 Z" fill="#bb151c" />
<path d="M 54.40 141.95 C 54.16 142.95 53.56 142.98 52.59 142.04 C 53.10 141.00 53.71 140.97 54.40 141.95 Z" fill="#550c0e" />
<path d="M 87.92 142.05 C 87.66 144.20 87.13 144.56 85.08 145.04 C 85.21 143.19 85.98 142.12 87.92 142.05 Z" fill="#6b3d29" />
<path d="M 140.02 144.16 C 144.10 145.02 147.95 145.35 150.30 149.25 L 149.68 150.11 C 147.76 149.12 145.87 148.11 144.03 146.99 C 142.65 146.09 140.64 146.13 139.38 145.06 L 140.02 144.16 Z" fill="#ffdc7f" />
<path d="M 48.89 145.15 L 50.85 145.02 C 53.82 145.89 56.78 146.18 59.26 147.82 C 55.71 147.29 52.28 146.31 48.89 145.15 Z" fill="#6e3525" />
<path d="M 67.09 149.31 C 68.06 149.63 69.03 149.96 70.00 150.28 C 70.92 150.04 71.84 149.77 72.76 149.50 C 73.51 150.98 74.36 152.48 74.88 154.06 C 74.27 154.81 73.56 155.52 72.76 156.19 C 73.91 156.07 75.06 155.97 76.21 155.87 C 77.45 157.02 78.40 158.43 79.75 159.43 C 80.93 160.47 82.06 160.51 83.20 159.41 C 84.11 158.70 85.03 158.00 85.95 157.31 C 86.73 157.84 87.51 158.37 88.28 158.90 L 86.37 159.18 C 84.57 159.32 82.98 161.13 81.55 162.13 C 82.22 162.55 82.93 162.90 83.66 163.17 C 84.94 163.67 86.20 163.94 87.22 164.94 C 85.25 165.03 83.54 164.88 81.67 164.24 L 81.16 163.69 C 80.48 162.83 79.40 162.63 77.92 163.09 C 77.38 162.82 76.84 162.54 76.30 162.26 C 74.34 163.69 72.18 164.59 69.93 165.44 C 69.82 164.65 69.70 163.87 69.58 163.09 C 71.08 162.72 72.57 162.34 74.06 161.94 C 75.55 161.42 75.59 160.75 74.18 159.92 C 71.46 156.79 68.87 153.61 66.88 149.94 L 67.09 149.31 Z" fill="#eb1c24" />
<path d="M 81.70 149.12 C 82.15 150.68 82.52 152.23 82.53 153.86 C 81.31 153.75 80.53 153.44 80.08 152.23 C 80.43 151.11 80.99 150.06 81.70 149.12 Z" fill="#642e20" />
<path d="M 119.20 150.90 C 120.57 151.57 121.84 152.32 122.99 153.32 C 120.51 153.01 120.02 153.40 118.20 154.97 C 118.33 153.49 118.43 152.19 119.20 150.90 Z" fill="#d8c96e" />
<path d="M 146.51 154.05 C 145.17 155.80 143.81 157.53 142.34 159.17 C 142.01 157.67 141.67 156.18 141.32 154.68 C 143.11 154.05 144.61 153.88 146.51 154.05 Z" fill="#1fa0c7" />
<path d="M 140.25 155.11 C 141.70 155.51 141.61 158.46 140.27 158.94 C 139.76 157.63 139.75 156.35 140.25 155.11 Z" fill="#ffe49c" />
<path d="M 90.13 156.53 C 87.78 158.01 90.70 159.02 90.92 156.93 C 91.64 157.48 92.36 158.06 93.06 158.64 C 91.47 158.73 89.87 158.79 88.28 158.90 C 87.51 158.37 86.73 157.84 85.95 157.31 C 87.52 156.24 88.23 155.73 90.13 156.53 Z" fill="#4b2e1e" />
<path d="M 90.13 156.53 L 90.92 156.93 C 90.70 159.02 87.78 158.01 90.13 156.53 Z" fill="#d31820" />
<path d="M 79.75 159.43 C 81.04 158.80 82.19 158.80 83.20 159.41 C 82.06 160.51 80.93 160.47 79.75 159.43 Z" fill="#38472a" />
<path d="M 86.37 159.18 C 89.45 160.75 92.80 158.73 94.28 161.98 C 90.03 162.36 85.80 161.88 81.55 162.13 C 82.98 161.13 84.57 159.32 86.37 159.18 Z" fill="#7e211c" />
<path d="M 74.18 159.92 C 75.59 160.75 75.55 161.42 74.06 161.94 L 74.18 159.92 Z" fill="#424128" />
<path d="M 69.58 163.09 C 69.70 163.87 69.82 164.65 69.93 165.44 C 69.08 165.89 67.32 166.93 67.11 165.29 C 67.38 164.03 68.38 163.34 69.58 163.09 Z" fill="#44452a" />
<path d="M 77.92 163.09 C 79.40 162.63 80.48 162.83 81.16 163.69 C 79.77 164.49 78.69 164.29 77.92 163.09 Z" fill="#79251e" />
<path d="M 83.66 163.17 C 86.33 163.06 89.99 163.21 91.34 166.00 C 88.41 165.96 85.57 165.88 82.68 165.34 L 81.67 164.24 C 83.54 164.88 85.25 165.03 87.22 164.94 C 86.20 163.94 84.94 163.67 83.66 163.17 Z" fill="#443d26" />
</svg>