<?xml version="1.0" encoding="UTF-8" standalone="no"?>
<!DOCTYPE svg PUBLIC "-//W3C//DTD SVG 1.1//EN" "http://www.w3.org/Graphics/SVG/1.1/DTD/svg11.dtd">
<svg xmlns="http://www.w3.org/2000/svg" version="1.1" viewBox="0 0 200 200" width="200.0pt" height="200.0pt">
<path d="M 0.00 0.00 L 99.68 0.00 L 99.44 0.19 C 83.52 12.53 64.33 21.01 44.76 25.59 C 33.42 28.32 21.88 29.20 10.26 29.73 C 8.25 43.27 8.33 57.33 8.86 70.99 C 10.44 91.98 15.76 112.50 26.11 130.92 C 40.38 156.86 63.07 177.51 87.99 193.02 C 91.72 195.49 95.84 197.35 99.43 200.00 L 0.00 200.00 L 0.00 0.00 Z" fill="#ffffff" />
<path d="M 99.68 0.00 L 100.56 0.00 C 102.68 2.10 105.12 3.76 107.63 5.35 C 123.93 15.96 142.33 23.42 161.48 26.85 C 170.75 28.80 180.41 29.20 189.84 29.73 C 192.49 54.96 192.44 80.52 184.89 104.95 C 177.17 130.43 161.90 152.49 142.25 170.26 C 132.09 179.58 120.73 187.77 108.93 194.90 C 106.09 196.60 103.15 198.04 100.45 200.00 L 99.43 200.00 C 95.84 197.35 91.72 195.49 87.99 193.02 C 63.07 177.51 40.38 156.86 26.11 130.92 C 15.76 112.50 10.44 91.98 8.86 70.99 C 8.33 57.33 8.25 43.27 10.26 29.73 C 21.88 29.20 33.42 28.32 44.76 25.59 C 64.33 21.01 83.52 12.53 99.44 0.19 L 99.68 0.00 Z" fill="#000000" />
<path d="M 100.56 0.00 L 200.00 0.00 L 200.00 200.00 L 100.45 200.00 C 103.15 198.04 106.09 196.60 108.93 194.90 C 120.73 187.77 132.09 179.58 142.25 170.26 C 161.90 152.49 177.17 130.43 184.89 104.95 C 192.44 80.52 192.49 54.96 189.84 29.73 C 180.41 29.20 170.75 28.80 161.48 26.85 C 142.33 23.42 123.93 15.96 107.63 5.35 C 105.12 3.76 102.68 2.10 100.56 0.00 Z" fill="#ffffff" />
<path d="M 100.01 10.38 C 104.25 13.03 108.42 15.77 112.80 18.19 C 112.73 40.03 112.89 61.87 112.71 83.71 C 109.70 75.95 106.72 68.18 103.82 60.38 C 100.91 60.38 97.99 60.33 95.08 60.46 C 92.22 66.89 90.03 73.63 87.29 80.13 C 86.94 59.50 87.26 38.86 87.12 18.23 C 91.52 15.78 95.72 13.01 100.01 10.38 Z" fill="#eb1c24" />
<path d="M 59.14 30.17 C 59.16 48.86 59.16 67.55 59.14 86.24 C 51.69 80.24 39.11 80.94 33.26 88.91 C 33.58 71.40 33.32 53.82 33.39 36.30 C 42.08 34.67 50.73 32.98 59.14 30.17 Z" fill="#eb1c24" />
<path d="M 140.94 30.19 C 149.35 33.02 157.99 34.69 166.69 36.31 C 166.69 40.43 166.47 44.64 166.90 48.75 C 164.84 46.16 162.51 44.08 159.05 43.87 C 153.01 43.52 146.92 43.76 140.87 43.74 C 141.04 39.23 140.91 34.70 140.94 30.19 Z" fill="#eb1c24" />
<path d="M 139.77 43.79 L 140.87 43.74 C 146.92 43.76 153.01 43.52 159.05 43.87 C 162.51 44.08 164.84 46.16 166.90 48.75 C 168.32 53.09 168.35 55.65 166.84 59.97 C 165.08 62.40 163.00 64.37 159.99 65.07 C 155.92 65.79 151.61 65.39 147.49 65.46 C 147.49 69.56 147.49 73.66 147.47 77.77 C 145.30 77.77 143.12 77.77 140.95 77.71 L 139.80 77.64 C 139.73 66.36 139.80 55.07 139.77 43.79 Z" fill="#ffffff" />
<path d="M 147.49 49.57 C 151.04 49.70 155.27 49.12 158.62 50.40 C 161.27 52.43 160.84 58.39 157.23 59.22 C 154.10 59.90 150.68 59.54 147.49 59.59 C 147.48 56.25 147.48 52.91 147.49 49.57 Z" fill="#eb1c24" />
<path d="M 95.08 60.46 C 97.99 60.33 100.91 60.38 103.82 60.38 C 106.72 68.18 109.70 75.95 112.71 83.71 C 114.04 87.40 115.48 91.05 116.85 94.72 C 115.49 94.73 114.14 94.73 112.79 94.73 C 111.37 94.73 109.95 94.73 108.53 94.73 C 107.69 92.34 106.86 89.94 106.07 87.53 C 101.55 87.53 97.04 87.53 92.52 87.51 C 91.60 89.92 90.73 92.34 89.85 94.76 C 88.94 94.75 88.04 94.75 87.14 94.74 C 85.34 94.73 83.53 94.74 81.73 94.75 C 83.57 89.87 85.53 85.03 87.29 80.13 C 90.03 73.63 92.22 66.89 95.08 60.46 Z" fill="#ffffff" />
<path d="M 166.84 59.97 C 166.55 63.27 166.66 66.68 166.66 70.00 C 166.69 88.01 166.64 106.03 166.70 124.04 C 166.71 125.78 166.46 127.05 165.58 128.56 C 158.95 140.29 150.46 150.62 140.94 160.11 C 140.95 132.65 140.94 105.18 140.95 77.71 C 143.12 77.77 145.30 77.77 147.47 77.77 C 147.49 73.66 147.49 69.56 147.49 65.46 C 151.61 65.39 155.92 65.79 159.99 65.07 C 163.00 64.37 165.08 62.40 166.84 59.97 Z" fill="#eb1c24" />
<path d="M 99.30 68.16 C 100.92 72.64 102.39 77.18 103.91 81.69 C 100.79 81.65 97.66 81.63 94.53 81.61 C 95.75 78.14 96.95 74.66 98.19 71.19 C 98.56 70.18 98.93 69.17 99.30 68.16 Z" fill="#eb1c24" />
<path d="M 59.14 86.24 C 61.41 88.55 62.58 91.30 63.50 94.36 C 62.05 94.39 60.59 94.40 59.14 94.41 C 58.03 94.40 56.92 94.39 55.82 94.38 C 54.48 92.24 53.62 89.81 50.98 89.01 C 47.93 88.22 43.95 88.20 41.56 90.58 C 38.66 93.30 38.02 97.21 38.13 101.02 C 38.13 103.99 38.93 106.88 40.79 109.22 C 43.50 112.40 48.39 113.10 51.93 110.90 C 53.90 109.84 54.72 107.55 55.79 105.70 C 56.90 105.69 58.02 105.68 59.13 105.68 C 60.55 105.68 61.97 105.69 63.39 105.70 C 62.32 108.64 61.20 111.47 59.15 113.88 C 51.84 120.48 39.42 119.74 33.29 111.89 C 29.24 104.77 29.15 96.02 33.26 88.91 C 39.11 80.94 51.69 80.24 59.14 86.24 Z" fill="#ffffff" />
<path d="M 92.52 87.51 C 97.04 87.53 101.55 87.53 106.07 87.53 C 106.86 89.94 107.69 92.34 108.53 94.73 C 109.95 94.73 111.37 94.73 112.79 94.73 C 112.79 124.02 112.80 153.31 112.79 182.60 C 108.62 185.37 104.35 187.96 100.00 190.43 C 95.62 187.97 91.35 185.33 87.15 182.57 C 87.13 153.29 87.15 124.02 87.14 94.74 C 88.04 94.75 88.94 94.75 89.85 94.76 C 90.73 92.34 91.60 89.92 92.52 87.51 Z" fill="#eb1c24" />
<path d="M 50.98 89.01 C 53.62 89.81 54.48 92.24 55.82 94.38 C 56.92 94.39 58.03 94.40 59.14 94.41 C 59.15 98.16 59.15 101.92 59.13 105.68 C 58.02 105.68 56.90 105.69 55.79 105.70 C 54.72 107.55 53.90 109.84 51.93 110.90 C 48.39 113.10 43.50 112.40 40.79 109.22 C 38.93 106.88 38.13 103.99 38.13 101.02 C 38.02 97.21 38.66 93.30 41.56 90.58 C 43.95 88.20 47.93 88.22 50.98 89.01 Z" fill="#eb1c24" />
<path d="M 33.29 111.89 C 39.42 119.74 51.84 120.48 59.15 113.88 C 59.15 129.31 59.16 144.73 59.14 160.16 C 49.69 150.95 41.39 140.63 34.76 129.22 C 34.01 127.89 33.38 126.58 33.40 125.02 C 33.24 120.65 33.60 116.28 33.29 111.89 Z" fill="#eb1c24" />
</svg>