<?xml version="1.0" encoding="UTF-8" standalone="no"?>
<!DOCTYPE svg PUBLIC "-//W3C//DTD SVG 1.1//EN" "http://www.w3.org/Graphics/SVG/1.1/DTD/svg11.dtd">
<svg xmlns="http://www.w3.org/2000/svg" version="1.1" viewBox="0 0 200 200" width="200.0pt" height="200.0pt">
<path d="M 0.00 0.00 L 200.00 0.00 L 200.00 200.00 L 0.00 200.00 L 0.00 0.00 Z" fill="#ffffff" />
<path d="M 93.20 36.56 C 97.80 35.77 101.13 37.98 104.38 40.92 C 107.43 38.94 110.17 37.15 114.01 37.57 C 118.86 37.82 122.00 40.59 124.22 44.69 C 128.12 43.52 131.64 42.47 135.51 44.49 C 139.37 46.35 140.62 49.75 141.94 53.53 C 146.25 53.19 150.21 53.34 153.49 56.50 C 156.55 59.29 156.73 62.77 157.15 66.64 C 161.21 67.29 164.71 68.32 167.09 71.94 C 169.81 75.46 169.20 79.10 168.56 83.21 C 171.98 84.96 175.03 86.66 176.41 90.49 C 178.24 94.74 176.57 98.07 174.87 101.94 C 177.66 104.59 180.20 106.99 180.74 111.02 C 181.41 115.59 178.98 118.76 176.18 121.99 C 178.24 125.20 180.21 127.94 179.63 131.99 C 179.18 136.61 176.14 139.18 172.43 141.44 C 173.79 144.71 174.75 147.75 173.39 151.24 C 171.89 155.97 168.14 158.23 163.59 159.51 C 164.10 163.71 163.81 167.58 160.78 170.79 C 157.88 173.94 154.30 174.07 150.31 174.50 C 149.70 178.47 148.93 181.98 145.40 184.38 C 141.89 187.05 138.27 186.27 134.21 185.87 C 132.55 189.11 131.06 192.00 127.49 193.46 C 123.13 195.57 119.06 194.44 115.02 192.26 C 112.44 195.14 110.12 197.70 106.02 198.11 C 101.60 198.64 98.58 196.40 95.47 193.64 C 92.14 195.79 89.14 197.69 84.96 196.95 C 80.48 196.43 77.79 193.58 75.52 189.95 C 71.53 191.04 68.01 192.11 64.09 189.97 C 60.36 188.09 59.28 184.80 57.92 181.15 C 53.71 181.20 49.99 181.33 46.65 178.37 C 43.39 175.61 43.11 172.06 42.74 168.08 C 38.90 167.18 35.46 166.42 33.02 163.02 C 30.23 159.51 30.26 155.60 31.35 151.42 C 27.76 149.58 24.62 147.77 23.26 143.72 C 21.68 139.63 23.22 136.37 24.99 132.71 C 22.05 129.89 19.40 127.34 18.98 123.04 C 18.65 118.65 21.01 115.67 23.65 112.52 C 21.63 109.48 19.79 106.83 20.26 102.96 C 20.43 98.12 23.60 95.67 27.19 93.05 C 25.54 88.81 25.15 84.66 27.69 80.67 C 29.66 77.34 32.76 76.30 36.17 75.00 C 35.76 70.86 35.99 67.15 38.91 63.93 C 41.83 60.68 45.50 60.49 49.55 59.86 C 50.27 56.02 50.86 52.64 54.33 50.30 C 57.86 47.53 61.49 48.23 65.62 48.74 C 67.20 45.52 68.70 42.64 72.21 41.20 C 76.62 39.00 80.70 40.16 84.83 42.25 C 87.30 39.61 89.40 37.14 93.20 36.56 Z" fill="#651f31" />
<path d="M 93.20 54.20 C 102.74 53.33 112.38 54.29 121.38 57.65 C 145.23 66.19 162.58 89.55 163.00 114.99 C 163.61 128.10 160.04 140.89 152.85 151.85 C 142.92 167.17 126.23 177.96 108.03 180.12 C 98.81 181.64 89.07 180.42 80.19 177.67 C 63.72 172.41 49.87 160.16 42.39 144.60 C 38.45 136.56 36.72 127.87 36.07 119.00 C 35.98 103.48 41.09 88.12 51.29 76.32 C 61.75 63.91 77.00 55.70 93.20 54.20 Z" fill="#ffffff" />
<path d="M 91.29 58.19 C 99.75 56.79 108.70 57.71 116.90 60.10 C 132.09 64.66 145.13 75.49 152.52 89.51 C 158.33 100.41 160.59 113.28 158.80 125.51 C 156.84 140.50 148.73 154.51 136.91 163.90 C 126.51 172.34 113.35 176.84 100.00 177.13 C 86.85 177.00 73.81 172.73 63.39 164.64 C 52.17 156.10 44.05 143.35 41.23 129.52 C 37.48 113.44 41.64 95.65 51.29 82.35 C 59.48 70.89 71.60 62.94 85.14 59.26 C 85.13 63.96 85.13 68.67 85.15 73.38 C 80.57 73.60 75.32 72.69 70.92 73.90 C 55.81 82.78 45.43 100.32 46.13 118.00 C 45.97 128.00 49.53 137.58 54.95 145.87 C 53.34 145.85 51.73 145.83 50.11 145.81 C 51.45 147.81 52.78 149.81 54.14 151.78 C 56.04 151.78 57.94 151.78 59.83 151.77 C 61.06 152.97 62.29 154.16 63.52 155.35 C 63.50 157.40 63.48 159.45 63.46 161.50 C 65.53 163.02 67.62 164.49 69.73 165.94 C 69.71 163.97 69.69 162.01 69.67 160.04 C 72.53 161.69 75.44 163.23 78.38 164.73 C 79.32 162.93 80.25 161.14 81.17 159.34 C 76.80 157.35 72.64 155.06 68.98 151.92 C 89.14 151.62 109.32 151.83 129.49 151.81 C 124.58 156.19 119.21 159.12 112.99 161.22 C 113.92 163.05 114.83 164.89 115.73 166.73 C 124.48 163.43 131.71 158.81 137.94 151.79 C 139.57 151.78 141.21 151.78 142.85 151.76 C 144.29 149.79 145.70 147.80 147.12 145.81 C 145.54 145.81 143.95 145.81 142.37 145.82 C 144.86 141.45 146.98 136.94 148.19 132.04 C 149.92 126.03 149.67 120.22 149.42 114.05 C 145.34 113.96 140.99 114.42 137.21 112.74 C 133.98 111.38 131.56 108.49 131.00 105.01 C 130.71 101.26 133.02 97.90 136.25 96.16 C 139.94 94.15 143.82 94.54 147.88 94.39 C 146.65 92.42 145.41 90.45 144.18 88.48 C 126.50 88.49 108.82 88.51 91.13 88.48 C 91.15 85.41 91.16 82.33 91.15 79.26 C 106.09 79.28 121.02 79.22 135.96 79.20 C 132.86 77.05 129.08 72.94 125.04 73.33 C 113.74 73.35 102.44 73.37 91.13 73.35 C 91.25 68.31 90.94 63.22 91.29 58.19 Z" fill="#651f31" />
<path d="M 73.49 79.47 C 77.30 78.95 81.29 79.32 85.13 79.28 C 85.12 82.34 85.14 85.40 85.15 88.46 C 77.66 88.50 70.16 88.51 62.66 88.44 C 65.91 85.30 69.36 81.44 73.49 79.47 Z" fill="#651f31" />
<path d="M 58.24 94.91 C 59.93 94.49 61.74 94.45 63.48 94.29 C 63.40 111.70 63.73 129.15 63.30 146.55 C 50.49 132.76 48.28 110.91 58.24 94.91 Z" fill="#651f31" />
<path d="M 69.69 94.51 C 74.84 94.51 79.99 94.50 85.14 94.53 C 85.13 101.02 85.13 107.50 85.14 113.99 C 79.99 114.01 74.84 114.00 69.69 114.00 C 69.68 107.50 69.69 101.01 69.69 94.51 Z" fill="#651f31" />
<path d="M 91.14 94.52 C 103.61 94.47 116.09 94.58 128.56 94.42 C 126.55 97.75 124.81 100.93 125.12 104.97 C 125.24 108.44 126.85 111.17 128.64 114.02 C 116.15 113.98 103.66 114.01 91.16 114.00 C 91.15 107.51 91.17 101.02 91.14 94.52 Z" fill="#651f31" />
<path d="M 69.69 119.88 C 74.84 119.88 79.99 119.87 85.14 119.86 C 85.13 128.50 85.12 137.15 85.14 145.80 C 79.99 145.83 74.85 145.80 69.70 145.83 C 69.68 137.18 69.69 128.53 69.69 119.88 Z" fill="#651f31" />
<path d="M 91.14 119.87 C 108.69 119.86 126.24 119.88 143.79 119.86 C 143.50 129.62 140.87 138.01 135.04 145.86 C 120.42 145.76 105.79 145.84 91.16 145.82 C 91.15 137.17 91.17 128.52 91.14 119.87 Z" fill="#651f31" />
</svg>